<svg width="236" height="237" viewBox="0 0 236 237" fill="none" xmlns="http://www.w3.org/2000/svg">
<path d="M74.0915 166.038C77.0594 168.147 80.6071 169.275 84.2421 169.266C87.8771 169.257 91.4191 168.111 94.3765 165.987C97.3754 163.787 99.6499 160.74 100.897 157.219L108.428 133.977C110.365 128.154 113.617 122.855 117.93 118.505C122.254 114.167 127.519 110.893 133.312 108.941L156.748 101.306C159.306 100.385 161.618 98.8815 163.503 96.9142C165.388 94.9468 166.795 92.5684 167.614 89.9645C168.322 87.7433 168.581 85.4028 168.379 83.0795C168.177 80.7563 167.516 78.4968 166.435 76.4328C165.355 74.3687 163.876 72.5414 162.086 71.0574C160.295 69.5734 158.229 68.4624 156.006 67.7891L132.84 60.2224C127.038 58.2853 121.764 55.0175 117.436 50.678C113.108 46.3384 109.845 41.0461 107.905 35.2201L100.29 11.7243C99.2962 8.92456 97.6149 6.42227 95.402 4.4494C93.1891 2.47654 90.5162 1.09696 87.6313 0.438554C84.7463 -0.219846 81.7425 -0.135751 78.8985 0.683043C76.0545 1.50184 73.4623 3.02882 71.3622 5.12244C69.4154 7.05443 67.9393 9.41231 67.0491 12.0121L59.3496 35.711C57.4335 41.3867 54.2514 46.5473 50.0466 50.7985C45.8418 55.0496 40.7255 58.2788 35.0886 60.2393L11.6531 67.823C9.10656 68.7624 6.80625 70.2717 4.9264 72.2367C3.04655 74.2018 1.63647 76.5709 0.802986 79.1646C-0.00521123 81.7684 -0.206761 84.524 0.213913 87.2185C0.634586 89.913 1.66622 92.4742 3.22909 94.7043C5.38563 97.7513 8.4351 100.037 11.9395 101.238L35.0886 108.771C40.9185 110.717 46.213 114.009 50.5466 118.383C54.8801 122.758 58.1318 128.093 60.0404 133.96L67.6556 157.506C68.8687 160.96 71.1263 163.939 74.0915 166.038ZM177.487 234.46C179.763 236.09 182.487 236.97 185.283 236.976C188.078 236.982 190.806 236.114 193.089 234.494C195.448 232.835 197.218 230.463 198.143 227.723L202.321 214.824C203.2 212.138 204.694 209.696 206.684 207.697C208.674 205.697 211.104 204.196 213.778 203.313L226.784 199.047C229.128 198.251 231.205 196.816 232.784 194.903C234.364 192.99 235.384 190.674 235.731 188.213C236.215 185.016 235.539 181.75 233.826 179.012C232.112 176.274 229.475 174.247 226.397 173.3L213.525 169.085C210.861 168.195 208.439 166.695 206.451 164.703C204.462 162.711 202.962 160.282 202.069 157.608L197.823 144.523C196.918 141.851 195.189 139.538 192.886 137.921C190.297 136.047 187.126 135.162 183.946 135.426C180.765 135.69 177.782 137.085 175.533 139.36C174.038 140.854 172.912 142.681 172.248 144.692L168.086 157.591C167.225 160.244 165.766 162.661 163.823 164.655C161.879 166.649 159.504 168.165 156.882 169.085L143.859 173.351C141.175 174.257 138.845 175.993 137.202 178.309C135.559 180.626 134.687 183.405 134.71 186.25C134.723 189.093 135.627 191.859 137.293 194.156C138.96 196.454 141.304 198.165 143.994 199.047L156.849 203.228C159.527 204.142 161.97 205.649 163.958 207.647C165.963 209.661 167.446 212.099 168.305 214.79L172.568 227.892C173.491 230.541 175.21 232.836 177.487 234.46Z" fill="url(#paint0_linear_936_2601)"/>
<defs>
<linearGradient id="paint0_linear_936_2601" x1="117.942" y1="0" x2="117.942" y2="236.976" gradientUnits="userSpaceOnUse">
<stop stop-color="#9DB2FB"/>
<stop offset="1" stop-color="#DBCEFF"/>
</linearGradient>
</defs>
</svg>
