<svg width="384" height="495" viewBox="0 0 384 495" fill="none" xmlns="http://www.w3.org/2000/svg">
<rect width="384" height="495" fill="#191919"/>
<rect x="33" y="134" width="14" height="14" fill="#4285F4" stroke="#4285F4" stroke-width="2"/>
<rect x="33" y="85" width="14" height="14" fill="#4285F4" stroke="#4285F4" stroke-width="2"/>
<rect x="33" y="182" width="14" height="14" fill="#4285F4" stroke="#4285F4" stroke-width="2"/>
<rect x="33" y="230" width="14" height="14" fill="#4285F4" stroke="#4285F4" stroke-width="2"/>
<rect x="33" y="278" width="14" height="14" stroke="#4285F4" stroke-width="2"/>
<path d="M325.467 241V240.142L329.062 236.673C329.381 236.371 329.617 236.106 329.768 235.879C329.928 235.643 330.033 235.429 330.083 235.235C330.142 235.034 330.172 234.84 330.172 234.655C330.172 234.201 330.012 233.844 329.692 233.583C329.373 233.322 328.906 233.192 328.292 233.192C327.821 233.192 327.397 233.272 327.018 233.432C326.64 233.583 326.312 233.823 326.034 234.151L325.177 233.406C325.513 232.977 325.963 232.65 326.526 232.422C327.098 232.187 327.725 232.069 328.406 232.069C329.02 232.069 329.554 232.17 330.008 232.372C330.462 232.565 330.811 232.847 331.055 233.217C331.307 233.587 331.433 234.024 331.433 234.529C331.433 234.815 331.395 235.097 331.32 235.374C331.244 235.652 331.101 235.946 330.891 236.257C330.681 236.568 330.378 236.917 329.983 237.304L326.779 240.395L326.476 239.903H331.812V241H325.467ZM336.301 241.101C335.611 241.101 334.993 240.924 334.446 240.571C333.908 240.218 333.479 239.705 333.16 239.032C332.849 238.359 332.693 237.544 332.693 236.585C332.693 235.626 332.849 234.811 333.16 234.138C333.479 233.465 333.908 232.952 334.446 232.599C334.993 232.246 335.611 232.069 336.301 232.069C336.982 232.069 337.596 232.246 338.142 232.599C338.689 232.952 339.118 233.465 339.429 234.138C339.74 234.811 339.896 235.626 339.896 236.585C339.896 237.544 339.74 238.359 339.429 239.032C339.118 239.705 338.689 240.218 338.142 240.571C337.596 240.924 336.982 241.101 336.301 241.101ZM336.301 239.978C336.763 239.978 337.167 239.852 337.512 239.6C337.865 239.348 338.138 238.969 338.331 238.465C338.533 237.96 338.634 237.334 338.634 236.585C338.634 235.837 338.533 235.21 338.331 234.706C338.138 234.201 337.865 233.823 337.512 233.57C337.167 233.318 336.763 233.192 336.301 233.192C335.838 233.192 335.43 233.318 335.077 233.57C334.724 233.823 334.446 234.201 334.245 234.706C334.051 235.21 333.954 235.837 333.954 236.585C333.954 237.334 334.051 237.96 334.245 238.465C334.446 238.969 334.724 239.348 335.077 239.6C335.43 239.852 335.838 239.978 336.301 239.978ZM342.174 241L348.204 232.17H349.175L343.145 241H342.174ZM342.88 236.913C342.477 236.913 342.119 236.812 341.808 236.61C341.497 236.409 341.253 236.127 341.077 235.765C340.908 235.404 340.824 234.983 340.824 234.504C340.824 234.024 340.908 233.604 341.077 233.242C341.253 232.881 341.497 232.599 341.808 232.397C342.119 232.195 342.477 232.095 342.88 232.095C343.292 232.095 343.65 232.195 343.953 232.397C344.264 232.599 344.503 232.881 344.672 233.242C344.84 233.604 344.924 234.024 344.924 234.504C344.924 234.983 344.84 235.404 344.672 235.765C344.503 236.127 344.264 236.409 343.953 236.61C343.65 236.812 343.292 236.913 342.88 236.913ZM342.88 236.194C343.267 236.194 343.57 236.047 343.789 235.753C344.007 235.45 344.117 235.034 344.117 234.504C344.117 233.974 344.007 233.562 343.789 233.268C343.57 232.965 343.267 232.814 342.88 232.814C342.502 232.814 342.199 232.965 341.972 233.268C341.754 233.562 341.644 233.974 341.644 234.504C341.644 235.025 341.754 235.437 341.972 235.74C342.199 236.043 342.502 236.194 342.88 236.194ZM348.468 241.076C348.065 241.076 347.707 240.975 347.396 240.773C347.085 240.571 346.845 240.289 346.677 239.928C346.509 239.566 346.425 239.146 346.425 238.666C346.425 238.187 346.509 237.767 346.677 237.405C346.845 237.043 347.085 236.762 347.396 236.56C347.707 236.358 348.065 236.257 348.468 236.257C348.88 236.257 349.238 236.358 349.541 236.56C349.852 236.762 350.091 237.043 350.26 237.405C350.436 237.767 350.525 238.187 350.525 238.666C350.525 239.146 350.436 239.566 350.26 239.928C350.091 240.289 349.852 240.571 349.541 240.773C349.238 240.975 348.88 241.076 348.468 241.076ZM348.468 240.357C348.847 240.357 349.145 240.21 349.364 239.915C349.591 239.612 349.705 239.196 349.705 238.666C349.705 238.145 349.591 237.733 349.364 237.43C349.145 237.128 348.847 236.976 348.468 236.976C348.09 236.976 347.787 237.128 347.56 237.43C347.342 237.725 347.232 238.137 347.232 238.666C347.232 239.196 347.342 239.612 347.56 239.915C347.787 240.21 348.09 240.357 348.468 240.357Z" fill="white"/>
<path d="M333.668 193.833V192.167H342.001V193.833H333.668ZM333.668 189.667V188H337.835V189.667H333.668ZM333.668 185.5V183.833H337.835V185.5H333.668ZM349.168 193.833L345.96 190.625C345.626 190.861 345.262 191.038 344.866 191.157C344.471 191.275 344.071 191.334 343.668 191.333C342.515 191.333 341.533 190.927 340.72 190.114C339.908 189.301 339.502 188.319 339.501 187.167C339.501 186.014 339.908 185.031 340.72 184.219C341.533 183.407 342.516 183.001 343.668 183C344.821 183 345.804 183.406 346.616 184.219C347.429 185.032 347.835 186.014 347.835 187.167C347.835 187.569 347.775 187.969 347.657 188.365C347.539 188.761 347.362 189.126 347.126 189.458L350.335 192.667L349.168 193.833ZM343.668 189.667C344.362 189.667 344.953 189.424 345.439 188.938C345.925 188.451 346.168 187.861 346.168 187.167C346.168 186.472 345.925 185.882 345.439 185.396C344.953 184.91 344.362 184.667 343.668 184.667C342.974 184.667 342.383 184.91 341.897 185.396C341.411 185.882 341.168 186.472 341.168 187.167C341.168 187.861 341.411 188.451 341.897 188.938C342.383 189.424 342.974 189.667 343.668 189.667Z" fill="white"/>
<path d="M333.668 290.833V289.167H342.001V290.833H333.668ZM333.668 286.667V285H337.835V286.667H333.668ZM333.668 282.5V280.833H337.835V282.5H333.668ZM349.168 290.833L345.96 287.625C345.626 287.861 345.262 288.038 344.866 288.157C344.471 288.275 344.071 288.334 343.668 288.333C342.515 288.333 341.533 287.927 340.72 287.114C339.908 286.301 339.502 285.319 339.501 284.167C339.501 283.014 339.908 282.031 340.72 281.219C341.533 280.407 342.516 280.001 343.668 280C344.821 280 345.804 280.406 346.616 281.219C347.429 282.032 347.835 283.014 347.835 284.167C347.835 284.569 347.775 284.969 347.657 285.365C347.539 285.761 347.362 286.126 347.126 286.458L350.335 289.667L349.168 290.833ZM343.668 286.667C344.362 286.667 344.953 286.424 345.439 285.938C345.925 285.451 346.168 284.861 346.168 284.167C346.168 283.472 345.925 282.882 345.439 282.396C344.953 281.91 344.362 281.667 343.668 281.667C342.974 281.667 342.383 281.91 341.897 282.396C341.411 282.882 341.168 283.472 341.168 284.167C341.168 284.861 341.411 285.451 341.897 285.938C342.383 286.424 342.974 286.667 343.668 286.667Z" fill="white"/>
<path d="M329.314 145.101C328.532 145.101 327.863 144.929 327.308 144.584C326.753 144.239 326.329 143.743 326.034 143.095C325.748 142.439 325.605 141.64 325.605 140.699C325.605 139.698 325.782 138.853 326.135 138.163C326.488 137.474 326.98 136.952 327.611 136.599C328.242 136.246 328.965 136.069 329.781 136.069C330.201 136.069 330.601 136.111 330.979 136.195C331.366 136.28 331.698 136.41 331.976 136.586L331.496 137.57C331.269 137.411 331.008 137.301 330.714 137.242C330.428 137.184 330.125 137.154 329.806 137.154C328.906 137.154 328.191 137.436 327.662 137.999C327.132 138.554 326.867 139.383 326.867 140.484C326.867 140.661 326.875 140.871 326.892 141.115C326.909 141.359 326.951 141.598 327.018 141.834L326.589 141.405C326.716 141.018 326.913 140.694 327.182 140.434C327.46 140.165 327.788 139.967 328.166 139.841C328.553 139.706 328.969 139.639 329.415 139.639C330.004 139.639 330.525 139.748 330.979 139.967C331.433 140.186 331.791 140.497 332.051 140.9C332.312 141.296 332.442 141.767 332.442 142.313C332.442 142.877 332.304 143.369 332.026 143.789C331.748 144.21 331.374 144.533 330.903 144.76C330.432 144.987 329.903 145.101 329.314 145.101ZM329.264 144.079C329.65 144.079 329.987 144.008 330.273 143.865C330.567 143.722 330.798 143.524 330.966 143.272C331.135 143.011 331.219 142.708 331.219 142.364C331.219 141.842 331.038 141.43 330.676 141.128C330.315 140.816 329.823 140.661 329.2 140.661C328.797 140.661 328.444 140.736 328.141 140.888C327.838 141.039 327.598 141.245 327.422 141.506C327.254 141.758 327.17 142.048 327.17 142.376C327.17 142.679 327.249 142.961 327.409 143.221C327.569 143.474 327.805 143.68 328.116 143.84C328.427 143.999 328.809 144.079 329.264 144.079ZM336.855 145.101C336.165 145.101 335.547 144.924 335.001 144.571C334.462 144.218 334.034 143.705 333.714 143.032C333.403 142.359 333.247 141.544 333.247 140.585C333.247 139.626 333.403 138.811 333.714 138.138C334.034 137.465 334.462 136.952 335.001 136.599C335.547 136.246 336.165 136.069 336.855 136.069C337.536 136.069 338.15 136.246 338.697 136.599C339.243 136.952 339.672 137.465 339.983 138.138C340.294 138.811 340.45 139.626 340.45 140.585C340.45 141.544 340.294 142.359 339.983 143.032C339.672 143.705 339.243 144.218 338.697 144.571C338.15 144.924 337.536 145.101 336.855 145.101ZM336.855 143.978C337.317 143.978 337.721 143.852 338.066 143.6C338.419 143.348 338.692 142.969 338.886 142.465C339.088 141.96 339.189 141.334 339.189 140.585C339.189 139.837 339.088 139.21 338.886 138.706C338.692 138.201 338.419 137.823 338.066 137.57C337.721 137.318 337.317 137.192 336.855 137.192C336.392 137.192 335.985 137.318 335.631 137.57C335.278 137.823 335.001 138.201 334.799 138.706C334.605 139.21 334.509 139.837 334.509 140.585C334.509 141.334 334.605 141.96 334.799 142.465C335.001 142.969 335.278 143.348 335.631 143.6C335.985 143.852 336.392 143.978 336.855 143.978ZM342.728 145L348.758 136.17H349.729L343.7 145H342.728ZM343.435 140.913C343.031 140.913 342.674 140.812 342.363 140.61C342.051 140.409 341.808 140.127 341.631 139.765C341.463 139.404 341.379 138.983 341.379 138.504C341.379 138.024 341.463 137.604 341.631 137.242C341.808 136.881 342.051 136.599 342.363 136.397C342.674 136.195 343.031 136.095 343.435 136.095C343.847 136.095 344.204 136.195 344.507 136.397C344.818 136.599 345.058 136.881 345.226 137.242C345.394 137.604 345.478 138.024 345.478 138.504C345.478 138.983 345.394 139.404 345.226 139.765C345.058 140.127 344.818 140.409 344.507 140.61C344.204 140.812 343.847 140.913 343.435 140.913ZM343.435 140.194C343.822 140.194 344.124 140.047 344.343 139.753C344.562 139.45 344.671 139.034 344.671 138.504C344.671 137.974 344.562 137.562 344.343 137.268C344.124 136.965 343.822 136.814 343.435 136.814C343.056 136.814 342.754 136.965 342.527 137.268C342.308 137.562 342.199 137.974 342.199 138.504C342.199 139.025 342.308 139.437 342.527 139.74C342.754 140.043 343.056 140.194 343.435 140.194ZM349.023 145.076C348.619 145.076 348.262 144.975 347.951 144.773C347.639 144.571 347.4 144.289 347.232 143.928C347.063 143.566 346.979 143.146 346.979 142.666C346.979 142.187 347.063 141.767 347.232 141.405C347.4 141.043 347.639 140.762 347.951 140.56C348.262 140.358 348.619 140.257 349.023 140.257C349.435 140.257 349.792 140.358 350.095 140.56C350.406 140.762 350.646 141.043 350.814 141.405C350.991 141.767 351.079 142.187 351.079 142.666C351.079 143.146 350.991 143.566 350.814 143.928C350.646 144.289 350.406 144.571 350.095 144.773C349.792 144.975 349.435 145.076 349.023 145.076ZM349.023 144.357C349.401 144.357 349.7 144.21 349.918 143.915C350.145 143.612 350.259 143.196 350.259 142.666C350.259 142.145 350.145 141.733 349.918 141.43C349.7 141.128 349.401 140.976 349.023 140.976C348.644 140.976 348.342 141.128 348.115 141.43C347.896 141.725 347.787 142.137 347.787 142.666C347.787 143.196 347.896 143.612 348.115 143.915C348.342 144.21 348.644 144.357 349.023 144.357Z" fill="white"/>
<rect x="72" y="86" width="64" height="12" rx="6" fill="white"/>
<rect x="72" y="135" width="119" height="12" rx="6" fill="white"/>
<rect x="72" y="183" width="78" height="12" rx="6" fill="white"/>
<rect x="72" y="231" width="78" height="12" rx="6" fill="white"/>
<rect x="72" y="279" width="61" height="12" rx="6" fill="white"/>
<line x1="32" y1="31.5" x2="352" y2="31.5" stroke="#BBBBBB"/>
<path d="M33.3245 56V47.1702H36.7681C37.5417 47.1702 38.2019 47.2921 38.7485 47.536C39.2951 47.7799 39.7156 48.1331 40.0099 48.5956C40.3042 49.0581 40.4514 49.6089 40.4514 50.248C40.4514 50.8871 40.3042 51.4379 40.0099 51.9005C39.7156 52.3546 39.2951 52.7035 38.7485 52.9474C38.2019 53.1913 37.5417 53.3132 36.7681 53.3132H34.0182L34.5859 52.733V56H33.3245ZM39.2278 56L36.9825 52.796H38.3322L40.6027 56H39.2278ZM34.5859 52.8591L34.0182 52.241H36.7302C37.5375 52.241 38.1472 52.0686 38.5593 51.7239C38.9797 51.3707 39.19 50.8787 39.19 50.248C39.19 49.6173 38.9797 49.1296 38.5593 48.7848C38.1472 48.44 37.5375 48.2676 36.7302 48.2676H34.0182L34.5859 47.6369V52.8591ZM43.4939 50.9796H48.0349V52.0518H43.4939V50.9796ZM43.6074 54.9026H48.7539V56H42.346V47.1702H48.5773V48.2676H43.6074V54.9026ZM50.653 56V47.1702H54.0967C54.8703 47.1702 55.5304 47.2921 56.0771 47.536C56.6237 47.7799 57.0441 48.1331 57.3385 48.5956C57.6328 49.0581 57.7799 49.6089 57.7799 50.248C57.7799 50.8871 57.6328 51.4379 57.3385 51.9005C57.0441 52.3546 56.6237 52.7077 56.0771 52.96C55.5304 53.2039 54.8703 53.3258 54.0967 53.3258H51.3468L51.9144 52.733V56H50.653ZM51.9144 52.8591L51.3468 52.2284H54.0588C54.8661 52.2284 55.4758 52.056 55.8878 51.7112C56.3083 51.3665 56.5185 50.8787 56.5185 50.248C56.5185 49.6173 56.3083 49.1296 55.8878 48.7848C55.4758 48.44 54.8661 48.2676 54.0588 48.2676H51.3468L51.9144 47.6369V52.8591ZM63.599 56.1009C62.9262 56.1009 62.2997 55.9874 61.7195 55.7603C61.1477 55.5333 60.6515 55.2179 60.231 54.8143C59.8106 54.4022 59.4826 53.9229 59.2472 53.3763C59.0117 52.8297 58.894 52.2326 58.894 51.5851C58.894 50.9376 59.0117 50.3405 59.2472 49.7939C59.4826 49.2473 59.8106 48.7722 60.231 48.3685C60.6515 47.9565 61.1477 47.6369 61.7195 47.4099C62.2913 47.1828 62.9178 47.0693 63.599 47.0693C64.2717 47.0693 64.8898 47.1828 65.4532 47.4099C66.0251 47.6285 66.5212 47.9439 66.9417 48.3559C67.3706 48.7596 67.6985 49.2347 67.9256 49.7813C68.161 50.3279 68.2788 50.9292 68.2788 51.5851C68.2788 52.241 68.161 52.8423 67.9256 53.3889C67.6985 53.9355 67.3706 54.4148 66.9417 54.8269C66.5212 55.2305 66.0251 55.5459 65.4532 55.7729C64.8898 55.9916 64.2717 56.1009 63.599 56.1009ZM63.599 54.9783C64.0867 54.9783 64.5366 54.8942 64.9487 54.726C65.3691 54.5578 65.7307 54.3223 66.0335 54.0196C66.3446 53.7085 66.5843 53.3469 66.7525 52.9348C66.9291 52.5227 67.0174 52.0728 67.0174 51.5851C67.0174 51.0974 66.9291 50.6475 66.7525 50.2354C66.5843 49.8233 66.3446 49.466 66.0335 49.1632C65.7307 48.8521 65.3691 48.6124 64.9487 48.4442C64.5366 48.276 64.0867 48.1919 63.599 48.1919C63.1028 48.1919 62.6445 48.276 62.2241 48.4442C61.812 48.6124 61.4504 48.8521 61.1392 49.1632C60.8281 49.466 60.5842 49.8233 60.4076 50.2354C60.2395 50.6475 60.1554 51.0974 60.1554 51.5851C60.1554 52.0728 60.2395 52.5227 60.4076 52.9348C60.5842 53.3469 60.8281 53.7085 61.1392 54.0196C61.4504 54.3223 61.812 54.5578 62.2241 54.726C62.6445 54.8942 63.1028 54.9783 63.599 54.9783ZM70.0634 56V47.1702H73.507C74.2807 47.1702 74.9408 47.2921 75.4874 47.536C76.034 47.7799 76.4545 48.1331 76.7488 48.5956C77.0431 49.0581 77.1903 49.6089 77.1903 50.248C77.1903 50.8871 77.0431 51.4379 76.7488 51.9005C76.4545 52.3546 76.034 52.7035 75.4874 52.9474C74.9408 53.1913 74.2807 53.3132 73.507 53.3132H70.7572L71.3248 52.733V56H70.0634ZM75.9667 56L73.7215 52.796H75.0712L77.3417 56H75.9667ZM71.3248 52.8591L70.7572 52.241H73.4692C74.2765 52.241 74.8862 52.0686 75.2982 51.7239C75.7187 51.3707 75.9289 50.8787 75.9289 50.248C75.9289 49.6173 75.7187 49.1296 75.2982 48.7848C74.8862 48.44 74.2765 48.2676 73.4692 48.2676H70.7572L71.3248 47.6369V52.8591ZM80.7151 56V48.2676H77.6877V47.1702H84.9912V48.2676H81.9639V56H80.7151ZM89.4659 56V47.1702H92.9095C93.6832 47.1702 94.3433 47.2921 94.8899 47.536C95.4366 47.7799 95.857 48.1331 96.1513 48.5956C96.4457 49.0581 96.5928 49.6089 96.5928 50.248C96.5928 50.8871 96.4457 51.4379 96.1513 51.9005C95.857 52.3546 95.4366 52.7077 94.8899 52.96C94.3433 53.2039 93.6832 53.3258 92.9095 53.3258H90.1597L90.7273 52.733V56H89.4659ZM90.7273 52.8591L90.1597 52.2284H92.8717C93.679 52.2284 94.2887 52.056 94.7007 51.7112C95.1212 51.3665 95.3314 50.8787 95.3314 50.248C95.3314 49.6173 95.1212 49.1296 94.7007 48.7848C94.2887 48.44 93.679 48.2676 92.8717 48.2676H90.1597L90.7273 47.6369V52.8591ZM98.3027 56V47.1702H101.746C102.52 47.1702 103.18 47.2921 103.727 47.536C104.273 47.7799 104.694 48.1331 104.988 48.5956C105.282 49.0581 105.43 49.6089 105.43 50.248C105.43 50.8871 105.282 51.4379 104.988 51.9005C104.694 52.3546 104.273 52.7035 103.727 52.9474C103.18 53.1913 102.52 53.3132 101.746 53.3132H98.9964L99.5641 52.733V56H98.3027ZM104.206 56L101.961 52.796H103.31L105.581 56H104.206ZM99.5641 52.8591L98.9964 52.241H101.708C102.516 52.241 103.125 52.0686 103.537 51.7239C103.958 51.3707 104.168 50.8787 104.168 50.248C104.168 49.6173 103.958 49.1296 103.537 48.7848C103.125 48.44 102.516 48.2676 101.708 48.2676H98.9964L99.5641 47.6369V52.8591ZM111.31 56.1009C110.637 56.1009 110.011 55.9874 109.431 55.7603C108.859 55.5333 108.363 55.2179 107.942 54.8143C107.522 54.4022 107.194 53.9229 106.958 53.3763C106.723 52.8297 106.605 52.2326 106.605 51.5851C106.605 50.9376 106.723 50.3405 106.958 49.7939C107.194 49.2473 107.522 48.7722 107.942 48.3685C108.363 47.9565 108.859 47.6369 109.431 47.4099C110.003 47.1828 110.629 47.0693 111.31 47.0693C111.983 47.0693 112.601 47.1828 113.164 47.4099C113.736 47.6285 114.232 47.9439 114.653 48.3559C115.082 48.7596 115.41 49.2347 115.637 49.7813C115.872 50.3279 115.99 50.9292 115.99 51.5851C115.99 52.241 115.872 52.8423 115.637 53.3889C115.41 53.9355 115.082 54.4148 114.653 54.8269C114.232 55.2305 113.736 55.5459 113.164 55.7729C112.601 55.9916 111.983 56.1009 111.31 56.1009ZM111.31 54.9783C111.798 54.9783 112.248 54.8942 112.66 54.726C113.08 54.5578 113.442 54.3223 113.745 54.0196C114.056 53.7085 114.296 53.3469 114.464 52.9348C114.64 52.5227 114.729 52.0728 114.729 51.5851C114.729 51.0974 114.64 50.6475 114.464 50.2354C114.296 49.8233 114.056 49.466 113.745 49.1632C113.442 48.8521 113.08 48.6124 112.66 48.4442C112.248 48.276 111.798 48.1919 111.31 48.1919C110.814 48.1919 110.356 48.276 109.935 48.4442C109.523 48.6124 109.162 48.8521 108.85 49.1632C108.539 49.466 108.295 49.8233 108.119 50.2354C107.951 50.6475 107.867 51.0974 107.867 51.5851C107.867 52.0728 107.951 52.5227 108.119 52.9348C108.295 53.3469 108.539 53.7085 108.85 54.0196C109.162 54.3223 109.523 54.5578 109.935 54.726C110.356 54.8942 110.814 54.9783 111.31 54.9783ZM121.761 56.1009C121.079 56.1009 120.453 55.9916 119.881 55.7729C119.309 55.5459 118.813 55.2305 118.393 54.8269C117.972 54.4148 117.644 53.9355 117.409 53.3889C117.173 52.8423 117.056 52.241 117.056 51.5851C117.056 50.9292 117.173 50.3279 117.409 49.7813C117.644 49.2347 117.972 48.7596 118.393 48.3559C118.822 47.9439 119.322 47.6285 119.894 47.4099C120.466 47.1828 121.096 47.0693 121.786 47.0693C122.484 47.0693 123.123 47.1828 123.703 47.4099C124.283 47.6369 124.775 47.9775 125.179 48.4316L124.397 49.2137C124.035 48.8605 123.64 48.604 123.211 48.4442C122.791 48.276 122.332 48.1919 121.836 48.1919C121.332 48.1919 120.861 48.276 120.424 48.4442C119.995 48.6124 119.62 48.8479 119.301 49.1506C118.99 49.4533 118.746 49.8149 118.569 50.2354C118.401 50.6475 118.317 51.0974 118.317 51.5851C118.317 52.0644 118.401 52.5143 118.569 52.9348C118.746 53.3469 118.99 53.7085 119.301 54.0196C119.62 54.3223 119.995 54.5578 120.424 54.726C120.852 54.8942 121.319 54.9783 121.824 54.9783C122.295 54.9783 122.745 54.9068 123.173 54.7638C123.611 54.6125 124.014 54.3644 124.384 54.0196L125.103 54.9783C124.666 55.3483 124.153 55.63 123.564 55.8234C122.984 56.0084 122.383 56.1009 121.761 56.1009ZM123.892 54.8143V51.5346H125.103V54.9783L123.892 54.8143ZM127.375 56V47.1702H130.819C131.592 47.1702 132.253 47.2921 132.799 47.536C133.346 47.7799 133.766 48.1331 134.061 48.5956C134.355 49.0581 134.502 49.6089 134.502 50.248C134.502 50.8871 134.355 51.4379 134.061 51.9005C133.766 52.3546 133.346 52.7035 132.799 52.9474C132.253 53.1913 131.592 53.3132 130.819 53.3132H128.069L128.637 52.733V56H127.375ZM133.278 56L131.033 52.796H132.383L134.653 56H133.278ZM128.637 52.8591L128.069 52.241H130.781C131.588 52.241 132.198 52.0686 132.61 51.7239C133.03 51.3707 133.241 50.8787 133.241 50.248C133.241 49.6173 133.03 49.1296 132.61 48.7848C132.198 48.44 131.588 48.2676 130.781 48.2676H128.069L128.637 47.6369V52.8591ZM137.544 50.9796H142.086V52.0518H137.544V50.9796ZM137.658 54.9026H142.805V56H136.397V47.1702H142.628V48.2676H137.658V54.9026ZM147.277 56.1009C146.604 56.1009 145.961 56 145.347 55.7982C144.733 55.5879 144.25 55.3188 143.896 54.9909L144.363 54.007C144.699 54.3013 145.128 54.5452 145.65 54.7386C146.171 54.932 146.713 55.0287 147.277 55.0287C147.79 55.0287 148.206 54.9699 148.526 54.8521C148.845 54.7344 149.081 54.5746 149.232 54.3728C149.383 54.1626 149.459 53.9271 149.459 53.6664C149.459 53.3637 149.358 53.1198 149.156 52.9348C148.963 52.7498 148.707 52.6026 148.387 52.4933C148.076 52.3756 147.731 52.2747 147.353 52.1906C146.974 52.1065 146.592 52.0098 146.205 51.9005C145.826 51.7827 145.477 51.6356 145.158 51.459C144.847 51.2824 144.594 51.0469 144.401 50.7526C144.208 50.4498 144.111 50.063 144.111 49.5921C144.111 49.138 144.229 48.7217 144.464 48.3433C144.708 47.9565 145.078 47.6495 145.574 47.4225C146.079 47.187 146.718 47.0693 147.491 47.0693C148.004 47.0693 148.513 47.1366 149.018 47.2711C149.522 47.4057 149.959 47.5991 150.33 47.8514L149.913 48.8605C149.535 48.6082 149.135 48.4274 148.715 48.3181C148.294 48.2003 147.887 48.1415 147.491 48.1415C146.995 48.1415 146.587 48.2046 146.268 48.3307C145.948 48.4568 145.713 48.625 145.561 48.8353C145.418 49.0455 145.347 49.2809 145.347 49.5416C145.347 49.8528 145.444 50.1009 145.637 50.2859C145.839 50.4709 146.095 50.618 146.407 50.7274C146.726 50.8367 147.075 50.9376 147.454 51.0301C147.832 51.1142 148.21 51.2109 148.589 51.3202C148.976 51.4295 149.325 51.5725 149.636 51.7491C149.955 51.9257 150.212 52.1611 150.405 52.4555C150.599 52.7498 150.695 53.1282 150.695 53.5907C150.695 54.0364 150.573 54.4527 150.33 54.8395C150.086 55.2179 149.707 55.5249 149.194 55.7603C148.69 55.9874 148.051 56.1009 147.277 56.1009ZM154.968 56.1009C154.295 56.1009 153.652 56 153.038 55.7982C152.424 55.5879 151.941 55.3188 151.588 54.9909L152.054 54.007C152.391 54.3013 152.819 54.5452 153.341 54.7386C153.862 54.932 154.405 55.0287 154.968 55.0287C155.481 55.0287 155.897 54.9699 156.217 54.8521C156.536 54.7344 156.772 54.5746 156.923 54.3728C157.075 54.1626 157.15 53.9271 157.15 53.6664C157.15 53.3637 157.049 53.1198 156.848 52.9348C156.654 52.7498 156.398 52.6026 156.078 52.4933C155.767 52.3756 155.422 52.2747 155.044 52.1906C154.665 52.1065 154.283 52.0098 153.896 51.9005C153.517 51.7827 153.168 51.6356 152.849 51.459C152.538 51.2824 152.285 51.0469 152.092 50.7526C151.899 50.4498 151.802 50.063 151.802 49.5921C151.802 49.138 151.92 48.7217 152.155 48.3433C152.399 47.9565 152.769 47.6495 153.265 47.4225C153.77 47.187 154.409 47.0693 155.182 47.0693C155.695 47.0693 156.204 47.1366 156.709 47.2711C157.213 47.4057 157.651 47.5991 158.021 47.8514L157.604 48.8605C157.226 48.6082 156.827 48.4274 156.406 48.3181C155.986 48.2003 155.578 48.1415 155.182 48.1415C154.686 48.1415 154.278 48.2046 153.959 48.3307C153.639 48.4568 153.404 48.625 153.253 48.8353C153.11 49.0455 153.038 49.2809 153.038 49.5416C153.038 49.8528 153.135 50.1009 153.328 50.2859C153.53 50.4709 153.787 50.618 154.098 50.7274C154.417 50.8367 154.766 50.9376 155.145 51.0301C155.523 51.1142 155.901 51.2109 156.28 51.3202C156.667 51.4295 157.016 51.5725 157.327 51.7491C157.646 51.9257 157.903 52.1611 158.096 52.4555C158.29 52.7498 158.386 53.1282 158.386 53.5907C158.386 54.0364 158.265 54.4527 158.021 54.8395C157.777 55.2179 157.398 55.5249 156.885 55.7603C156.381 55.9874 155.742 56.1009 154.968 56.1009Z" fill="white"/>
<path d="M340.602 52.781L342.014 54.193L350.48 45.727L351.894 47.142L342.014 57.022L335.65 50.657L337.064 49.243L339.189 51.368L340.602 52.781ZM340.604 49.953L345.556 45L346.966 46.41L342.014 51.363L340.604 49.953ZM337.777 55.608L336.364 57.021L330 50.657L331.414 49.243L332.827 50.656L332.826 50.657L337.777 55.608Z" fill="#BBBBBB"/>
</svg>
