<svg width="440" height="401" viewBox="0 0 440 401" fill="none" xmlns="http://www.w3.org/2000/svg">
<path d="M133.961 263.401H311.341V399.817C311.341 400.095 311.23 400.361 311.034 400.558C310.837 400.754 310.571 400.864 310.293 400.864H135.009C134.731 400.864 134.464 400.754 134.268 400.558C134.071 400.361 133.961 400.095 133.961 399.817V263.401Z" fill="url(#paint0_linear_1152_5594)" fill-opacity="0.9"/>
<path d="M266.842 209.945H184.364L133.961 263.403H311.341L266.842 209.945Z" fill="#242D46"/>
<path d="M137.429 261.906L185.01 211.441H266.14L308.148 261.906H137.429Z" stroke="url(#paint1_linear_1152_5594)" stroke-opacity="0.9" stroke-width="2.99304"/>
<path d="M150.763 188.561L184.365 209.944L133.962 263.402L95.7773 234.382L150.763 188.561Z" fill="url(#paint2_linear_1152_5594)" fill-opacity="0.9"/>
<path d="M300.446 188.561L266.844 209.944L311.343 263.402L355.431 234.382L300.446 188.561Z" fill="url(#paint3_linear_1152_5594)" fill-opacity="0.9"/>
<path fill-rule="evenodd" clip-rule="evenodd" d="M269.125 187.878C275.991 140.884 318.157 118.057 362.176 112.867C362.932 112.776 363.475 112.09 363.385 111.334C363.294 110.578 362.608 110.035 361.852 110.126C316.6 115.459 273.451 139.17 266.394 187.481C266.282 188.233 266.805 188.933 267.561 189.045C268.313 189.156 269.013 188.634 269.125 187.878Z" fill="url(#paint4_linear_1152_5594)" fill-opacity="0.9"/>
<path fill-rule="evenodd" clip-rule="evenodd" d="M361.191 111.594C359.233 113.025 356.757 114.795 356.482 115.004C349.024 120.668 342.844 127.185 337.403 134.831C336.961 135.451 337.107 136.315 337.727 136.757C338.347 137.2 339.211 137.053 339.653 136.433C344.927 129.017 350.919 122.695 358.154 117.202C358.575 116.881 364.145 112.907 365.211 112.019C365.65 111.656 365.786 111.315 365.81 111.231C365.956 110.792 365.869 110.448 365.751 110.197C365.615 109.915 365.277 109.504 364.622 109.295C363.936 109.079 362.41 108.981 362.027 108.925C356.248 108.068 349.724 107.616 343.785 105.971C338.121 104.404 332.983 101.75 329.688 96.4305C329.287 95.7826 328.434 95.5841 327.786 95.9846C327.138 96.3852 326.939 97.2386 327.34 97.8865C331.025 103.833 336.717 106.881 343.046 108.633C348.951 110.266 355.416 110.761 361.191 111.594Z" fill="url(#paint5_linear_1152_5594)" fill-opacity="0.9"/>
<path fill-rule="evenodd" clip-rule="evenodd" d="M182.063 187.878C175.197 140.884 133.031 118.057 89.0116 112.867C88.2557 112.776 87.7123 112.09 87.8028 111.334C87.8934 110.578 88.5796 110.035 89.3355 110.126C134.588 115.459 177.736 139.17 184.794 187.481C184.905 188.233 184.382 188.933 183.627 189.045C182.874 189.156 182.174 188.634 182.063 187.878Z" fill="url(#paint6_linear_1152_5594)" fill-opacity="0.9"/>
<path fill-rule="evenodd" clip-rule="evenodd" d="M89.9964 111.594C91.9541 113.025 94.4308 114.795 94.7059 115.004C102.164 120.668 108.343 127.185 113.784 134.831C114.227 135.451 114.08 136.315 113.46 136.757C112.84 137.2 111.976 137.053 111.534 136.433C106.26 129.017 100.269 122.695 93.034 117.202C92.6125 116.881 87.0425 112.907 85.9766 112.019C85.5377 111.656 85.402 111.315 85.3776 111.231C85.2313 110.792 85.3183 110.448 85.4368 110.197C85.5726 109.915 85.9104 109.504 86.5653 109.295C87.2515 109.079 88.7773 108.981 89.1605 108.925C94.9394 108.068 101.464 107.616 107.403 105.971C113.067 104.404 118.205 101.75 121.5 96.4305C121.901 95.7826 122.754 95.5841 123.402 95.9846C124.05 96.3852 124.248 97.2386 123.848 97.8865C120.162 103.833 114.47 106.881 108.141 108.633C102.237 110.266 95.7718 110.761 89.9964 111.594Z" fill="url(#paint7_linear_1152_5594)" fill-opacity="0.9"/>
<path fill-rule="evenodd" clip-rule="evenodd" d="M214.443 185.004C248.006 151.401 241.09 103.955 218.93 65.5678C218.55 64.9078 218.775 64.0618 219.435 63.6824C220.095 63.303 220.941 63.5281 221.321 64.1882C244.104 103.649 250.898 152.412 216.394 186.955C215.858 187.495 214.984 187.494 214.443 186.955C213.904 186.419 213.904 185.545 214.443 185.004Z" fill="url(#paint8_linear_1152_5594)" fill-opacity="0.9"/>
<path fill-rule="evenodd" clip-rule="evenodd" d="M220.538 65.5988C220.561 68.024 220.624 71.0672 220.621 71.4128C220.54 80.7773 219.011 89.6274 216.136 98.5604C215.903 99.2857 215.123 99.6849 214.398 99.4524C213.673 99.22 213.273 98.4401 213.506 97.7147C216.297 89.0532 217.782 80.4706 217.859 71.3869C217.864 70.8574 217.719 64.0163 217.794 62.6308C217.822 62.0624 218.014 61.7495 218.067 61.68C218.331 61.3002 218.66 61.1638 218.931 61.1088C219.239 61.049 219.77 61.074 220.329 61.4739C220.913 61.8948 221.903 63.0595 222.177 63.3333C226.319 67.453 230.583 72.4118 235.452 76.1892C240.096 79.7919 245.295 82.323 251.529 81.7839C252.288 81.7176 252.957 82.2829 253.024 83.0417C253.09 83.8006 252.525 84.4701 251.766 84.5364C244.796 85.1377 238.95 82.3979 233.761 78.3723C228.921 74.6166 224.659 69.7303 220.538 65.5988Z" fill="url(#paint9_linear_1152_5594)" fill-opacity="0.9"/>
<path d="M376.123 102.302V92.1015H372.101V89.731H383.055V92.1015H379.033V102.302H376.123ZM390.295 92.4966C391.062 92.4966 391.744 92.6522 392.343 92.9635C392.953 93.2628 393.432 93.7297 393.779 94.3642C394.126 94.9868 394.3 95.7889 394.3 96.7706V102.302H391.499V97.2016C391.499 96.4234 391.325 95.8488 390.978 95.4776C390.643 95.1065 390.164 94.9209 389.541 94.9209C389.098 94.9209 388.697 95.0167 388.338 95.2083C387.991 95.3878 387.715 95.6692 387.512 96.0523C387.32 96.4354 387.225 96.9263 387.225 97.5249V102.302H384.423V88.9768H387.225V95.316L386.596 94.5079C386.943 93.8614 387.44 93.3646 388.087 93.0174C388.733 92.6702 389.469 92.4966 390.295 92.4966ZM396.839 102.302V92.6402H399.515V95.3699L399.138 94.5797C399.425 93.8973 399.886 93.3825 400.521 93.0353C401.155 92.6762 401.928 92.4966 402.837 92.4966V95.0826C402.718 95.0706 402.61 95.0646 402.514 95.0646C402.418 95.0526 402.317 95.0466 402.209 95.0466C401.443 95.0466 400.82 95.2681 400.341 95.7111C399.874 96.1421 399.641 96.8185 399.641 97.7404V102.302H396.839ZM409.228 102.445C408.127 102.445 407.157 102.23 406.319 101.799C405.493 101.368 404.852 100.781 404.397 100.039C403.942 99.2848 403.715 98.4288 403.715 97.471C403.715 96.5013 403.936 95.6452 404.379 94.903C404.834 94.1487 405.451 93.5621 406.229 93.1431C407.007 92.7121 407.887 92.4966 408.869 92.4966C409.815 92.4966 410.665 92.7001 411.419 93.1072C412.185 93.5022 412.79 94.0769 413.233 94.8311C413.676 95.5734 413.897 96.4653 413.897 97.5069C413.897 97.6147 413.891 97.7404 413.879 97.884C413.867 98.0157 413.855 98.1414 413.843 98.2612H405.995V96.627H412.371L411.293 97.1118C411.293 96.609 411.191 96.172 410.988 95.8009C410.784 95.4297 410.503 95.1424 410.144 94.9389C409.785 94.7234 409.366 94.6156 408.887 94.6156C408.408 94.6156 407.983 94.7234 407.612 94.9389C407.253 95.1424 406.971 95.4357 406.768 95.8188C406.564 96.19 406.462 96.6329 406.462 97.1478V97.5787C406.462 98.1055 406.576 98.5724 406.804 98.9795C407.043 99.3746 407.372 99.6799 407.791 99.8954C408.222 100.099 408.725 100.201 409.3 100.201C409.815 100.201 410.264 100.123 410.647 99.9672C411.042 99.8116 411.401 99.5781 411.724 99.2668L413.215 100.883C412.772 101.386 412.215 101.775 411.545 102.05C410.874 102.314 410.102 102.445 409.228 102.445ZM421.425 102.302V100.416L421.246 100.003V96.627C421.246 96.0284 421.06 95.5614 420.689 95.2262C420.33 94.891 419.773 94.7234 419.019 94.7234C418.504 94.7234 417.995 94.8072 417.493 94.9748C417.002 95.1304 416.583 95.3459 416.235 95.6213L415.23 93.6639C415.757 93.2927 416.391 93.0054 417.133 92.8019C417.876 92.5983 418.63 92.4966 419.396 92.4966C420.869 92.4966 422.012 92.8438 422.826 93.5381C423.64 94.2325 424.047 95.316 424.047 96.7886V102.302H421.425ZM418.48 102.445C417.726 102.445 417.079 102.32 416.541 102.068C416.002 101.805 415.589 101.452 415.302 101.009C415.014 100.566 414.871 100.069 414.871 99.5182C414.871 98.9436 415.008 98.4407 415.284 98.0097C415.571 97.5787 416.02 97.2435 416.631 97.0041C417.241 96.7527 418.037 96.627 419.019 96.627H421.587V98.2612H419.324C418.666 98.2612 418.211 98.3689 417.959 98.5844C417.72 98.7999 417.6 99.0693 417.6 99.3925C417.6 99.7517 417.738 100.039 418.013 100.255C418.301 100.458 418.69 100.56 419.181 100.56C419.648 100.56 420.067 100.452 420.438 100.237C420.809 100.009 421.078 99.6799 421.246 99.2489L421.677 100.542C421.473 101.164 421.102 101.637 420.563 101.961C420.025 102.284 419.33 102.445 418.48 102.445ZM430.534 102.445C429.396 102.445 428.51 102.158 427.876 101.583C427.241 100.997 426.924 100.129 426.924 98.9795V90.5032H429.725V98.9436C429.725 99.3506 429.833 99.6679 430.049 99.8954C430.264 100.111 430.557 100.219 430.929 100.219C431.372 100.219 431.749 100.099 432.06 99.8594L432.814 101.835C432.527 102.038 432.18 102.194 431.773 102.302C431.378 102.398 430.965 102.445 430.534 102.445ZM425.433 95.0107V92.8557H432.132V95.0107H425.433ZM384.164 124.302V114.101H380.142V111.731H391.096V114.101H387.073V124.302H384.164ZM393.106 127.929C392.603 127.929 392.107 127.851 391.616 127.696C391.125 127.54 390.724 127.325 390.413 127.049L391.436 125.056C391.652 125.248 391.897 125.397 392.172 125.505C392.46 125.613 392.741 125.667 393.017 125.667C393.412 125.667 393.723 125.571 393.95 125.379C394.19 125.2 394.405 124.894 394.597 124.463L395.1 123.278L395.315 122.973L398.781 114.64H401.475L397.111 124.894C396.8 125.673 396.441 126.283 396.034 126.726C395.638 127.169 395.195 127.48 394.705 127.66C394.226 127.84 393.693 127.929 393.106 127.929ZM394.758 124.679L390.449 114.64H393.34L396.68 122.721L394.758 124.679ZM408.329 124.445C407.515 124.445 406.802 124.266 406.192 123.907C405.581 123.548 405.102 123.003 404.755 122.272C404.42 121.53 404.252 120.596 404.252 119.471C404.252 118.334 404.414 117.4 404.737 116.67C405.06 115.939 405.527 115.394 406.138 115.035C406.748 114.676 407.479 114.497 408.329 114.497C409.239 114.497 410.053 114.706 410.771 115.125C411.501 115.532 412.076 116.107 412.495 116.849C412.926 117.591 413.142 118.465 413.142 119.471C413.142 120.489 412.926 121.369 412.495 122.111C412.076 122.853 411.501 123.428 410.771 123.835C410.053 124.242 409.239 124.445 408.329 124.445ZM402.618 127.786V114.64H405.294V116.616L405.24 119.489L405.419 122.344V127.786H402.618ZM407.844 122.147C408.311 122.147 408.724 122.039 409.083 121.824C409.454 121.608 409.747 121.303 409.963 120.908C410.19 120.501 410.304 120.022 410.304 119.471C410.304 118.908 410.19 118.429 409.963 118.034C409.747 117.639 409.454 117.334 409.083 117.118C408.724 116.903 408.311 116.795 407.844 116.795C407.377 116.795 406.958 116.903 406.587 117.118C406.216 117.334 405.922 117.639 405.707 118.034C405.491 118.429 405.384 118.908 405.384 119.471C405.384 120.022 405.491 120.501 405.707 120.908C405.922 121.303 406.216 121.608 406.587 121.824C406.958 122.039 407.377 122.147 407.844 122.147ZM419.812 124.445C418.71 124.445 417.741 124.23 416.902 123.799C416.076 123.368 415.436 122.781 414.981 122.039C414.526 121.285 414.299 120.429 414.299 119.471C414.299 118.501 414.52 117.645 414.963 116.903C415.418 116.149 416.035 115.562 416.813 115.143C417.591 114.712 418.471 114.497 419.453 114.497C420.398 114.497 421.248 114.7 422.003 115.107C422.769 115.502 423.373 116.077 423.816 116.831C424.259 117.573 424.481 118.465 424.481 119.507C424.481 119.615 424.475 119.74 424.463 119.884C424.451 120.016 424.439 120.141 424.427 120.261H416.579V118.627H422.954L421.877 119.112C421.877 118.609 421.775 118.172 421.572 117.801C421.368 117.43 421.087 117.142 420.728 116.939C420.368 116.723 419.949 116.616 419.471 116.616C418.992 116.616 418.567 116.723 418.195 116.939C417.836 117.142 417.555 117.436 417.351 117.819C417.148 118.19 417.046 118.633 417.046 119.148V119.579C417.046 120.106 417.16 120.572 417.387 120.979C417.627 121.375 417.956 121.68 418.375 121.895C418.806 122.099 419.309 122.201 419.884 122.201C420.398 122.201 420.847 122.123 421.23 121.967C421.626 121.812 421.985 121.578 422.308 121.267L423.798 122.883C423.355 123.386 422.799 123.775 422.128 124.05C421.458 124.314 420.686 124.445 419.812 124.445Z" fill="#8185FF"/>
<path d="M183.286 17V4.42925H185.692L191.044 13.3006H189.769L195.031 4.42925H197.419L197.455 17H194.725L194.707 8.61351H195.21L191.008 15.6711H189.697L185.405 8.61351H186.016V17H183.286ZM205.035 17.1437C203.933 17.1437 202.964 16.9282 202.126 16.4972C201.299 16.0662 200.659 15.4795 200.204 14.7373C199.749 13.983 199.522 13.127 199.522 12.1692C199.522 11.1995 199.743 10.3435 200.186 9.60122C200.641 8.84697 201.258 8.26034 202.036 7.84131C202.814 7.41031 203.694 7.19482 204.676 7.19482C205.621 7.19482 206.471 7.39834 207.226 7.80539C207.992 8.20047 208.596 8.77514 209.039 9.52938C209.482 10.2717 209.704 11.1636 209.704 12.2052C209.704 12.3129 209.698 12.4386 209.686 12.5823C209.674 12.714 209.662 12.8397 209.65 12.9594H201.802V11.3252H208.177L207.1 11.8101C207.1 11.3072 206.998 10.8703 206.795 10.4991C206.591 10.128 206.31 9.84066 205.951 9.63713C205.591 9.42163 205.172 9.31388 204.694 9.31388C204.215 9.31388 203.79 9.42163 203.419 9.63713C203.059 9.84066 202.778 10.134 202.574 10.5171C202.371 10.8882 202.269 11.3312 202.269 11.846V12.277C202.269 12.8038 202.383 13.2707 202.61 13.6777C202.85 14.0728 203.179 14.3781 203.598 14.5936C204.029 14.7971 204.532 14.8989 205.107 14.8989C205.621 14.8989 206.07 14.8211 206.453 14.6654C206.849 14.5098 207.208 14.2763 207.531 13.9651L209.021 15.5813C208.579 16.0841 208.022 16.4732 207.351 16.7486C206.681 17.012 205.909 17.1437 205.035 17.1437ZM223.942 7.19482C224.708 7.19482 225.385 7.35045 225.972 7.66173C226.57 7.96103 227.037 8.42795 227.372 9.06247C227.719 9.68502 227.893 10.4872 227.893 11.4689V17H225.092V11.8999C225.092 11.1217 224.93 10.547 224.607 10.1759C224.283 9.80474 223.828 9.61917 223.242 9.61917C222.835 9.61917 222.47 9.71495 222.146 9.90651C221.823 10.0861 221.572 10.3614 221.392 10.7326C221.213 11.1037 221.123 11.5766 221.123 12.1513V17H218.321V11.8999C218.321 11.1217 218.16 10.547 217.836 10.1759C217.525 9.80474 217.076 9.61917 216.49 9.61917C216.083 9.61917 215.717 9.71495 215.394 9.90651C215.071 10.0861 214.819 10.3614 214.64 10.7326C214.46 11.1037 214.37 11.5766 214.37 12.1513V17H211.569V7.33848H214.245V9.97834L213.742 9.20613C214.077 8.54767 214.55 8.05082 215.161 7.7156C215.783 7.36841 216.49 7.19482 217.28 7.19482C218.166 7.19482 218.938 7.42229 219.596 7.87723C220.267 8.3202 220.71 9.00261 220.925 9.92446L219.938 9.65509C220.261 8.90085 220.776 8.30224 221.482 7.85927C222.2 7.4163 223.02 7.19482 223.942 7.19482ZM235.072 17.1437C234.042 17.1437 233.126 16.9282 232.324 16.4972C231.534 16.0662 230.905 15.4795 230.438 14.7373C229.983 13.983 229.756 13.127 229.756 12.1692C229.756 11.1995 229.983 10.3435 230.438 9.60122C230.905 8.84697 231.534 8.26034 232.324 7.84131C233.126 7.41031 234.042 7.19482 235.072 7.19482C236.089 7.19482 236.999 7.41031 237.801 7.84131C238.603 8.26034 239.232 8.84098 239.687 9.58326C240.142 10.3255 240.369 11.1875 240.369 12.1692C240.369 13.127 240.142 13.983 239.687 14.7373C239.232 15.4795 238.603 16.0662 237.801 16.4972C236.999 16.9282 236.089 17.1437 235.072 17.1437ZM235.072 14.845C235.538 14.845 235.957 14.7373 236.329 14.5218C236.7 14.3063 236.993 14.001 237.209 13.6059C237.424 13.1988 237.532 12.72 237.532 12.1692C237.532 11.6065 237.424 11.1277 237.209 10.7326C236.993 10.3375 236.7 10.0322 236.329 9.81671C235.957 9.60122 235.538 9.49347 235.072 9.49347C234.605 9.49347 234.186 9.60122 233.814 9.81671C233.443 10.0322 233.144 10.3375 232.917 10.7326C232.701 11.1277 232.593 11.6065 232.593 12.1692C232.593 12.72 232.701 13.1988 232.917 13.6059C233.144 14.001 233.443 14.3063 233.814 14.5218C234.186 14.7373 234.605 14.845 235.072 14.845ZM242.242 17V7.33848H244.918V10.0681L244.54 9.27797C244.828 8.59556 245.289 8.08075 245.923 7.73356C246.558 7.3744 247.33 7.19482 248.24 7.19482V9.7808C248.12 9.76883 248.012 9.76284 247.917 9.76284C247.821 9.75087 247.719 9.74488 247.611 9.74488C246.845 9.74488 246.223 9.96637 245.744 10.4093C245.277 10.8403 245.043 11.5168 245.043 12.4386V17H242.242ZM251.46 20.6276C250.957 20.6276 250.46 20.5497 249.969 20.3941C249.479 20.2385 249.078 20.023 248.766 19.7476L249.79 17.7542C250.005 17.9458 250.251 18.0955 250.526 18.2032C250.813 18.3109 251.095 18.3648 251.37 18.3648C251.765 18.3648 252.077 18.269 252.304 18.0775C252.543 17.8979 252.759 17.5926 252.95 17.1616L253.453 15.9764L253.669 15.6711L257.135 7.33848H259.828L255.465 17.5926C255.153 18.3708 254.794 18.9814 254.387 19.4244C253.992 19.8673 253.549 20.1786 253.058 20.3582C252.579 20.5378 252.047 20.6276 251.46 20.6276ZM253.112 17.3771L248.802 7.33848H251.693L255.034 15.4197L253.112 17.3771ZM163.018 39L168.621 26.4292H171.494L177.115 39H174.062L169.465 27.9018H170.614L165.999 39H163.018ZM165.819 36.3063L166.592 34.0974H173.057L173.847 36.3063H165.819ZM182.803 39.1437C181.762 39.1437 180.834 38.9342 180.02 38.5151C179.206 38.0841 178.565 37.4915 178.098 36.7373C177.643 35.983 177.416 35.127 177.416 34.1692C177.416 33.1995 177.643 32.3435 178.098 31.6012C178.565 30.847 179.206 30.2603 180.02 29.8413C180.834 29.4103 181.762 29.1948 182.803 29.1948C183.821 29.1948 184.707 29.4103 185.461 29.8413C186.215 30.2603 186.772 30.8649 187.131 31.6551L184.958 32.8224C184.707 32.3674 184.39 32.0322 184.006 31.8167C183.635 31.6012 183.228 31.4935 182.785 31.4935C182.306 31.4935 181.875 31.6012 181.492 31.8167C181.109 32.0322 180.804 32.3375 180.576 32.7326C180.361 33.1277 180.253 33.6065 180.253 34.1692C180.253 34.7319 180.361 35.2108 180.576 35.6059C180.804 36.001 181.109 36.3063 181.492 36.5218C181.875 36.7373 182.306 36.845 182.785 36.845C183.228 36.845 183.635 36.7433 184.006 36.5397C184.39 36.3242 184.707 35.983 184.958 35.5161L187.131 36.7013C186.772 37.4795 186.215 38.0841 185.461 38.5151C184.707 38.9342 183.821 39.1437 182.803 39.1437ZM193.291 39.1437C192.249 39.1437 191.321 38.9342 190.507 38.5151C189.693 38.0841 189.052 37.4915 188.586 36.7373C188.131 35.983 187.903 35.127 187.903 34.1692C187.903 33.1995 188.131 32.3435 188.586 31.6012C189.052 30.847 189.693 30.2603 190.507 29.8413C191.321 29.4103 192.249 29.1948 193.291 29.1948C194.308 29.1948 195.194 29.4103 195.948 29.8413C196.703 30.2603 197.259 30.8649 197.618 31.6551L195.446 32.8224C195.194 32.3674 194.877 32.0322 194.494 31.8167C194.123 31.6012 193.716 31.4935 193.273 31.4935C192.794 31.4935 192.363 31.6012 191.98 31.8167C191.597 32.0322 191.291 32.3375 191.064 32.7326C190.848 33.1277 190.741 33.6065 190.741 34.1692C190.741 34.7319 190.848 35.2108 191.064 35.6059C191.291 36.001 191.597 36.3063 191.98 36.5218C192.363 36.7373 192.794 36.845 193.273 36.845C193.716 36.845 194.123 36.7433 194.494 36.5397C194.877 36.3242 195.194 35.983 195.446 35.5161L197.618 36.7013C197.259 37.4795 196.703 38.0841 195.948 38.5151C195.194 38.9342 194.308 39.1437 193.291 39.1437ZM203.904 39.1437C202.802 39.1437 201.832 38.9282 200.994 38.4972C200.168 38.0662 199.528 37.4795 199.073 36.7373C198.618 35.983 198.39 35.127 198.39 34.1692C198.39 33.1995 198.612 32.3435 199.055 31.6012C199.51 30.847 200.126 30.2603 200.905 29.8413C201.683 29.4103 202.563 29.1948 203.544 29.1948C204.49 29.1948 205.34 29.3983 206.094 29.8054C206.861 30.2005 207.465 30.7751 207.908 31.5294C208.351 32.2717 208.573 33.1636 208.573 34.2052C208.573 34.3129 208.567 34.4386 208.555 34.5823C208.543 34.714 208.531 34.8397 208.519 34.9594H200.671V33.3252H207.046L205.969 33.8101C205.969 33.3072 205.867 32.8703 205.663 32.4991C205.46 32.128 205.179 31.8407 204.819 31.6371C204.46 31.4216 204.041 31.3139 203.562 31.3139C203.084 31.3139 202.658 31.4216 202.287 31.6371C201.928 31.8407 201.647 32.134 201.443 32.5171C201.24 32.8882 201.138 33.3312 201.138 33.846V34.277C201.138 34.8038 201.252 35.2707 201.479 35.6777C201.719 36.0728 202.048 36.3781 202.467 36.5936C202.898 36.7971 203.401 36.8989 203.975 36.8989C204.49 36.8989 204.939 36.8211 205.322 36.6654C205.717 36.5098 206.077 36.2763 206.4 35.9651L207.89 37.5813C207.447 38.0841 206.891 38.4732 206.22 38.7486C205.55 39.012 204.778 39.1437 203.904 39.1437ZM213.688 39.1437C212.862 39.1437 212.066 39.0479 211.3 38.8563C210.546 38.6528 209.947 38.4014 209.504 38.1021L210.438 36.0908C210.881 36.3661 211.402 36.5936 212 36.7732C212.611 36.9408 213.209 37.0246 213.796 37.0246C214.443 37.0246 214.897 36.9468 215.161 36.7911C215.436 36.6355 215.574 36.42 215.574 36.1446C215.574 35.9172 215.466 35.7496 215.251 35.6418C215.047 35.5221 214.772 35.4323 214.425 35.3724C214.077 35.3126 213.694 35.2527 213.275 35.1929C212.868 35.133 212.455 35.0552 212.036 34.9594C211.617 34.8517 211.234 34.696 210.887 34.4925C210.54 34.289 210.258 34.0136 210.043 33.6664C209.839 33.3192 209.737 32.8703 209.737 32.3195C209.737 31.709 209.911 31.1702 210.258 30.7033C210.617 30.2364 211.132 29.8712 211.803 29.6079C212.473 29.3325 213.275 29.1948 214.209 29.1948C214.868 29.1948 215.538 29.2666 216.22 29.4103C216.903 29.554 217.471 29.7635 217.926 30.0389L216.993 32.0322C216.526 31.7569 216.053 31.5713 215.574 31.4755C215.107 31.3678 214.652 31.3139 214.209 31.3139C213.587 31.3139 213.132 31.3977 212.844 31.5653C212.557 31.7329 212.413 31.9484 212.413 32.2118C212.413 32.4512 212.515 32.6308 212.719 32.7505C212.934 32.8703 213.215 32.966 213.563 33.0379C213.91 33.1097 214.287 33.1756 214.694 33.2354C215.113 33.2833 215.532 33.3611 215.951 33.4689C216.37 33.5766 216.747 33.7323 217.082 33.9358C217.43 34.1273 217.711 34.3967 217.926 34.7439C218.142 35.0791 218.25 35.5221 218.25 36.0728C218.25 36.6714 218.07 37.2042 217.711 37.6711C217.352 38.126 216.831 38.4852 216.149 38.7486C215.478 39.012 214.658 39.1437 213.688 39.1437ZM223.229 39.1437C222.403 39.1437 221.606 39.0479 220.84 38.8563C220.086 38.6528 219.487 38.4014 219.044 38.1021L219.978 36.0908C220.421 36.3661 220.942 36.5936 221.541 36.7732C222.151 36.9408 222.75 37.0246 223.336 37.0246C223.983 37.0246 224.438 36.9468 224.701 36.7911C224.977 36.6355 225.114 36.42 225.114 36.1446C225.114 35.9172 225.006 35.7496 224.791 35.6418C224.587 35.5221 224.312 35.4323 223.965 35.3724C223.618 35.3126 223.235 35.2527 222.816 35.1929C222.409 35.133 221.995 35.0552 221.576 34.9594C221.157 34.8517 220.774 34.696 220.427 34.4925C220.08 34.289 219.799 34.0136 219.583 33.6664C219.38 33.3192 219.278 32.8703 219.278 32.3195C219.278 31.709 219.451 31.1702 219.799 30.7033C220.158 30.2364 220.673 29.8712 221.343 29.6079C222.013 29.3325 222.816 29.1948 223.749 29.1948C224.408 29.1948 225.078 29.2666 225.761 29.4103C226.443 29.554 227.012 29.7635 227.467 30.0389L226.533 32.0322C226.066 31.7569 225.593 31.5713 225.114 31.4755C224.647 31.3678 224.192 31.3139 223.749 31.3139C223.127 31.3139 222.672 31.3977 222.385 31.5653C222.097 31.7329 221.954 31.9484 221.954 32.2118C221.954 32.4512 222.055 32.6308 222.259 32.7505C222.474 32.8703 222.756 32.966 223.103 33.0379C223.45 33.1097 223.827 33.1756 224.234 33.2354C224.653 33.2833 225.072 33.3611 225.491 33.4689C225.91 33.5766 226.287 33.7323 226.623 33.9358C226.97 34.1273 227.251 34.3967 227.467 34.7439C227.682 35.0791 227.79 35.5221 227.79 36.0728C227.79 36.6714 227.61 37.2042 227.251 37.6711C226.892 38.126 226.371 38.4852 225.689 38.7486C225.018 39.012 224.198 39.1437 223.229 39.1437ZM237.406 39V28.7997H233.383V26.4292H244.338V28.7997H240.315V39H237.406ZM246.348 42.6276C245.845 42.6276 245.348 42.5497 244.857 42.3941C244.366 42.2385 243.965 42.023 243.654 41.7476L244.678 39.7542C244.893 39.9458 245.139 40.0955 245.414 40.2032C245.701 40.3109 245.983 40.3648 246.258 40.3648C246.653 40.3648 246.964 40.269 247.192 40.0775C247.431 39.8979 247.647 39.5926 247.838 39.1616L248.341 37.9764L248.557 37.6711L252.023 29.3385H254.716L250.353 39.5926C250.041 40.3708 249.682 40.9814 249.275 41.4244C248.88 41.8673 248.437 42.1786 247.946 42.3582C247.467 42.5378 246.934 42.6276 246.348 42.6276ZM248 39.3771L243.69 29.3385H246.581L249.922 37.4197L248 39.3771ZM261.57 39.1437C260.756 39.1437 260.044 38.9641 259.433 38.6049C258.823 38.2458 258.344 37.701 257.997 36.9707C257.661 36.2284 257.494 35.2946 257.494 34.1692C257.494 33.0319 257.655 32.0981 257.979 31.3678C258.302 30.6375 258.769 30.0927 259.379 29.7336C259.99 29.3744 260.72 29.1948 261.57 29.1948C262.48 29.1948 263.294 29.4043 264.013 29.8234C264.743 30.2304 265.317 30.8051 265.737 31.5473C266.168 32.2896 266.383 33.1636 266.383 34.1692C266.383 35.1869 266.168 36.0668 265.737 36.8091C265.317 37.5514 264.743 38.126 264.013 38.5331C263.294 38.9401 262.48 39.1437 261.57 39.1437ZM255.86 42.4839V29.3385H258.535V31.3139L258.481 34.1872L258.661 37.0426V42.4839H255.86ZM261.085 36.845C261.552 36.845 261.965 36.7373 262.324 36.5218C262.696 36.3063 262.989 36.001 263.204 35.6059C263.432 35.1988 263.546 34.72 263.546 34.1692C263.546 33.6065 263.432 33.1277 263.204 32.7326C262.989 32.3375 262.696 32.0322 262.324 31.8167C261.965 31.6012 261.552 31.4935 261.085 31.4935C260.618 31.4935 260.199 31.6012 259.828 31.8167C259.457 32.0322 259.164 32.3375 258.948 32.7326C258.733 33.1277 258.625 33.6065 258.625 34.1692C258.625 34.72 258.733 35.1988 258.948 35.6059C259.164 36.001 259.457 36.3063 259.828 36.5218C260.199 36.7373 260.618 36.845 261.085 36.845ZM273.053 39.1437C271.952 39.1437 270.982 38.9282 270.144 38.4972C269.318 38.0662 268.677 37.4795 268.222 36.7373C267.768 35.983 267.54 35.127 267.54 34.1692C267.54 33.1995 267.762 32.3435 268.205 31.6012C268.659 30.847 269.276 30.2603 270.054 29.8413C270.832 29.4103 271.712 29.1948 272.694 29.1948C273.64 29.1948 274.49 29.3983 275.244 29.8054C276.01 30.2005 276.615 30.7751 277.058 31.5294C277.501 32.2717 277.722 33.1636 277.722 34.2052C277.722 34.3129 277.716 34.4386 277.704 34.5823C277.692 34.714 277.68 34.8397 277.669 34.9594H269.821V33.3252H276.196L275.118 33.8101C275.118 33.3072 275.017 32.8703 274.813 32.4991C274.61 32.128 274.328 31.8407 273.969 31.6371C273.61 31.4216 273.191 31.3139 272.712 31.3139C272.233 31.3139 271.808 31.4216 271.437 31.6371C271.078 31.8407 270.796 32.134 270.593 32.5171C270.389 32.8882 270.288 33.3312 270.288 33.846V34.277C270.288 34.8038 270.401 35.2707 270.629 35.6777C270.868 36.0728 271.198 36.3781 271.617 36.5936C272.048 36.7971 272.55 36.8989 273.125 36.8989C273.64 36.8989 274.089 36.8211 274.472 36.6654C274.867 36.5098 275.226 36.2763 275.549 35.9651L277.04 37.5813C276.597 38.0841 276.04 38.4732 275.37 38.7486C274.699 39.012 273.927 39.1437 273.053 39.1437Z" fill="#8185FF"/>
<path d="M11.1763 105.294L16.7792 92.7237H19.6525L25.2735 105.294H22.2206L17.6233 94.1963H18.7726L14.1573 105.294H11.1763ZM13.9777 102.601L14.7499 100.392H21.2149L22.0051 102.601H13.9777ZM30.2432 105.438C29.1059 105.438 28.22 105.151 27.5854 104.576C26.9509 103.989 26.6336 103.121 26.6336 101.972V93.4959H29.4351V101.936C29.4351 102.343 29.5429 102.661 29.7584 102.888C29.9739 103.104 30.2672 103.211 30.6383 103.211C31.0813 103.211 31.4584 103.092 31.7697 102.852L32.5239 104.828C32.2366 105.031 31.8894 105.187 31.4824 105.294C31.0873 105.39 30.6742 105.438 30.2432 105.438ZM25.1431 98.0034V95.8484H31.8415V98.0034H25.1431ZM37.8369 105.438C36.6996 105.438 35.8136 105.151 35.1791 104.576C34.5446 103.989 34.2273 103.121 34.2273 101.972V93.4959H37.0288V101.936C37.0288 102.343 37.1365 102.661 37.352 102.888C37.5675 103.104 37.8609 103.211 38.232 103.211C38.675 103.211 39.0521 103.092 39.3634 102.852L40.1176 104.828C39.8303 105.031 39.4831 105.187 39.076 105.294C38.6809 105.39 38.2679 105.438 37.8369 105.438ZM32.7368 98.0034V95.8484H39.4352V98.0034H32.7368ZM47.6164 105.294V103.409L47.4368 102.996V99.6196C47.4368 99.021 47.2513 98.5541 46.8801 98.2189C46.521 97.8837 45.9643 97.7161 45.21 97.7161C44.6952 97.7161 44.1864 97.7999 43.6836 97.9675C43.1927 98.1231 42.7737 98.3386 42.4265 98.614L41.4208 96.6565C41.9476 96.2854 42.5821 95.9981 43.3244 95.7945C44.0667 95.591 44.8209 95.4892 45.5871 95.4892C47.0597 95.4892 48.2031 95.8364 49.0172 96.5308C49.8313 97.2252 50.2383 98.3087 50.2383 99.7813V105.294H47.6164ZM44.6713 105.438C43.917 105.438 43.2705 105.312 42.7318 105.061C42.193 104.798 41.78 104.444 41.4927 104.001C41.2053 103.558 41.0617 103.062 41.0617 102.511C41.0617 101.936 41.1994 101.433 41.4747 101.002C41.762 100.571 42.211 100.236 42.8216 99.9968C43.4322 99.7453 44.2283 99.6196 45.21 99.6196H47.778V101.254H45.5153C44.8568 101.254 44.4019 101.362 44.1505 101.577C43.911 101.793 43.7913 102.062 43.7913 102.385C43.7913 102.744 43.929 103.032 44.2044 103.247C44.4917 103.451 44.8808 103.552 45.3716 103.552C45.8386 103.552 46.2576 103.445 46.6287 103.229C46.9999 103.002 47.2692 102.673 47.4368 102.242L47.8678 103.535C47.6643 104.157 47.2932 104.63 46.7544 104.953C46.2157 105.276 45.5213 105.438 44.6713 105.438ZM57.5131 105.438C56.4715 105.438 55.5437 105.229 54.7296 104.81C53.9154 104.379 53.2749 103.786 52.808 103.032C52.3531 102.277 52.1256 101.421 52.1256 100.464C52.1256 99.4939 52.3531 98.6379 52.808 97.8956C53.2749 97.1414 53.9154 96.5548 54.7296 96.1357C55.5437 95.7047 56.4715 95.4892 57.5131 95.4892C58.5307 95.4892 59.4166 95.7047 60.1709 96.1357C60.9251 96.5548 61.4818 97.1594 61.841 97.9495L59.6681 99.1168C59.4166 98.6619 59.0994 98.3266 58.7163 98.1111C58.3451 97.8956 57.9381 97.7879 57.4951 97.7879C57.0162 97.7879 56.5852 97.8956 56.2021 98.1111C55.819 98.3266 55.5137 98.6319 55.2863 99.027C55.0708 99.4221 54.963 99.901 54.963 100.464C54.963 101.026 55.0708 101.505 55.2863 101.9C55.5137 102.295 55.819 102.601 56.2021 102.816C56.5852 103.032 57.0162 103.139 57.4951 103.139C57.9381 103.139 58.3451 103.038 58.7163 102.834C59.0994 102.619 59.4166 102.277 59.6681 101.811L61.841 102.996C61.4818 103.774 60.9251 104.379 60.1709 104.81C59.4166 105.229 58.5307 105.438 57.5131 105.438ZM65.718 103.319L65.7898 99.907L70.2974 95.6329H73.6376L69.3097 100.033L67.855 101.218L65.718 103.319ZM63.4014 105.294V91.9694H66.2029V105.294H63.4014ZM70.6026 105.294L67.3343 101.236L69.0942 99.0629L73.9968 105.294H70.6026ZM12.3907 127.294L6.9673 114.724H10.11L14.851 125.858H13.0013L17.8141 114.724H20.7053L15.264 127.294H12.3907ZM25.6332 127.438C24.5317 127.438 23.562 127.223 22.7239 126.792C21.8979 126.361 21.2574 125.774 20.8024 125.032C20.3475 124.277 20.12 123.421 20.12 122.464C20.12 121.494 20.3415 120.638 20.7845 119.896C21.2394 119.141 21.856 118.555 22.6342 118.136C23.4123 117.705 24.2923 117.489 25.274 117.489C26.2198 117.489 27.0698 117.693 27.8241 118.1C28.5903 118.495 29.1949 119.07 29.6379 119.824C30.0808 120.566 30.3023 121.458 30.3023 122.5C30.3023 122.607 30.2963 122.733 30.2844 122.877C30.2724 123.008 30.2604 123.134 30.2484 123.254H22.4007V121.62H28.7759L27.6984 122.105C27.6984 121.602 27.5966 121.165 27.3931 120.794C27.1896 120.422 26.9082 120.135 26.549 119.932C26.1899 119.716 25.7709 119.608 25.292 119.608C24.8131 119.608 24.3881 119.716 24.0169 119.932C23.6578 120.135 23.3764 120.428 23.1729 120.812C22.9694 121.183 22.8676 121.626 22.8676 122.14V122.571C22.8676 123.098 22.9813 123.565 23.2088 123.972C23.4483 124.367 23.7775 124.673 24.1965 124.888C24.6275 125.092 25.1303 125.193 25.705 125.193C26.2198 125.193 26.6688 125.116 27.0519 124.96C27.447 124.804 27.8061 124.571 28.1294 124.259L29.6199 125.876C29.1769 126.379 28.6202 126.768 27.9498 127.043C27.2793 127.306 26.5071 127.438 25.6332 127.438ZM36.8366 127.438C35.795 127.438 34.8672 127.229 34.0531 126.81C33.2389 126.379 32.5984 125.786 32.1315 125.032C31.6766 124.277 31.4491 123.421 31.4491 122.464C31.4491 121.494 31.6766 120.638 32.1315 119.896C32.5984 119.141 33.2389 118.555 34.0531 118.136C34.8672 117.705 35.795 117.489 36.8366 117.489C37.8542 117.489 38.7401 117.705 39.4944 118.136C40.2486 118.555 40.8053 119.159 41.1645 119.95L38.9916 121.117C38.7401 120.662 38.4229 120.327 38.0398 120.111C37.6686 119.896 37.2616 119.788 36.8186 119.788C36.3397 119.788 35.9087 119.896 35.5256 120.111C35.1425 120.327 34.8372 120.632 34.6098 121.027C34.3943 121.422 34.2865 121.901 34.2865 122.464C34.2865 123.026 34.3943 123.505 34.6098 123.9C34.8372 124.295 35.1425 124.601 35.5256 124.816C35.9087 125.032 36.3397 125.139 36.8186 125.139C37.2616 125.139 37.6686 125.038 38.0398 124.834C38.4229 124.619 38.7401 124.277 38.9916 123.811L41.1645 124.996C40.8053 125.774 40.2486 126.379 39.4944 126.81C38.7401 127.229 37.8542 127.438 36.8366 127.438ZM46.8686 127.438C45.7313 127.438 44.8453 127.151 44.2108 126.576C43.5763 125.989 43.259 125.121 43.259 123.972V115.496H46.0605V123.936C46.0605 124.343 46.1683 124.661 46.3838 124.888C46.5993 125.104 46.8926 125.211 47.2637 125.211C47.7067 125.211 48.0838 125.092 48.3951 124.852L49.1493 126.828C48.862 127.031 48.5148 127.187 48.1077 127.294C47.7127 127.39 47.2996 127.438 46.8686 127.438ZM41.7685 120.003V117.848H48.4669V120.003H41.7685ZM55.0211 127.438C53.9915 127.438 53.0756 127.223 52.2735 126.792C51.4833 126.361 50.8548 125.774 50.3879 125.032C49.9329 124.277 49.7055 123.421 49.7055 122.464C49.7055 121.494 49.9329 120.638 50.3879 119.896C50.8548 119.141 51.4833 118.555 52.2735 118.136C53.0756 117.705 53.9915 117.489 55.0211 117.489C56.0387 117.489 56.9486 117.705 57.7507 118.136C58.5529 118.555 59.1814 119.135 59.6364 119.878C60.0913 120.62 60.3188 121.482 60.3188 122.464C60.3188 123.421 60.0913 124.277 59.6364 125.032C59.1814 125.774 58.5529 126.361 57.7507 126.792C56.9486 127.223 56.0387 127.438 55.0211 127.438ZM55.0211 125.139C55.488 125.139 55.907 125.032 56.2782 124.816C56.6493 124.601 56.9426 124.295 57.1581 123.9C57.3736 123.493 57.4814 123.014 57.4814 122.464C57.4814 121.901 57.3736 121.422 57.1581 121.027C56.9426 120.632 56.6493 120.327 56.2782 120.111C55.907 119.896 55.488 119.788 55.0211 119.788C54.5542 119.788 54.1352 119.896 53.764 120.111C53.3929 120.327 53.0936 120.632 52.8661 121.027C52.6506 121.422 52.5429 121.901 52.5429 122.464C52.5429 123.014 52.6506 123.493 52.8661 123.9C53.0936 124.295 53.3929 124.601 53.764 124.816C54.1352 125.032 54.5542 125.139 55.0211 125.139ZM62.1913 127.294V117.633H64.8671V120.363L64.49 119.572C64.7773 118.89 65.2382 118.375 65.8728 118.028C66.5073 117.669 67.2795 117.489 68.1894 117.489V120.075C68.0697 120.063 67.9619 120.057 67.8661 120.057C67.7703 120.045 67.6686 120.039 67.5608 120.039C66.7946 120.039 66.1721 120.261 65.6932 120.704C65.2263 121.135 64.9928 121.811 64.9928 122.733V127.294H62.1913ZM73.1757 127.438C72.3496 127.438 71.5535 127.342 70.7873 127.151C70.033 126.947 69.4344 126.696 68.9915 126.397L69.9253 124.385C70.3683 124.661 70.889 124.888 71.4876 125.068C72.0982 125.235 72.6968 125.319 73.2835 125.319C73.93 125.319 74.3849 125.241 74.6483 125.086C74.9237 124.93 75.0613 124.714 75.0613 124.439C75.0613 124.212 74.9536 124.044 74.7381 123.936C74.5346 123.817 74.2592 123.727 73.912 123.667C73.5648 123.607 73.1817 123.547 72.7627 123.487C72.3556 123.427 71.9426 123.35 71.5236 123.254C71.1045 123.146 70.7214 122.99 70.3742 122.787C70.027 122.583 69.7457 122.308 69.5302 121.961C69.3267 121.614 69.2249 121.165 69.2249 120.614C69.2249 120.003 69.3985 119.465 69.7457 118.998C70.1049 118.531 70.6197 118.166 71.2901 117.902C71.9605 117.627 72.7627 117.489 73.6965 117.489C74.355 117.489 75.0254 117.561 75.7078 117.705C76.3902 117.848 76.9589 118.058 77.4139 118.333L76.48 120.327C76.0131 120.051 75.5402 119.866 75.0613 119.77C74.5944 119.662 74.1395 119.608 73.6965 119.608C73.074 119.608 72.619 119.692 72.3317 119.86C72.0444 120.027 71.9007 120.243 71.9007 120.506C71.9007 120.746 72.0025 120.925 72.206 121.045C72.4215 121.165 72.7028 121.26 73.05 121.332C73.3972 121.404 73.7743 121.47 74.1814 121.53C74.6004 121.578 75.0194 121.656 75.4385 121.763C75.8575 121.871 76.2346 122.027 76.5698 122.23C76.917 122.422 77.1984 122.691 77.4139 123.038C77.6294 123.374 77.7371 123.817 77.7371 124.367C77.7371 124.966 77.5575 125.499 77.1984 125.966C76.8392 126.42 76.3184 126.78 75.636 127.043C74.9656 127.306 74.1455 127.438 73.1757 127.438Z" fill="#8185FF"/>
<defs>
<linearGradient id="paint0_linear_1152_5594" x1="97.7541" y1="272.398" x2="321.178" y2="295.759" gradientUnits="userSpaceOnUse">
<stop stop-color="#4285F4"/>
<stop offset="1" stop-color="#D6C8FF"/>
</linearGradient>
<linearGradient id="paint1_linear_1152_5594" x1="97.7541" y1="213.444" x2="308.394" y2="270.077" gradientUnits="userSpaceOnUse">
<stop stop-color="#4285F4"/>
<stop offset="1" stop-color="#D6C8FF"/>
</linearGradient>
<linearGradient id="paint2_linear_1152_5594" x1="77.6949" y1="193.459" x2="189.469" y2="204.18" gradientUnits="userSpaceOnUse">
<stop stop-color="#4285F4"/>
<stop offset="1" stop-color="#D6C8FF"/>
</linearGradient>
<linearGradient id="paint3_linear_1152_5594" x1="248.761" y1="193.459" x2="360.536" y2="204.18" gradientUnits="userSpaceOnUse">
<stop stop-color="#4285F4"/>
<stop offset="1" stop-color="#D6C8FF"/>
</linearGradient>
<linearGradient id="paint4_linear_1152_5594" x1="383.197" y1="183.893" x2="260.875" y2="171.712" gradientUnits="userSpaceOnUse">
<stop stop-color="#4285F4"/>
<stop offset="1" stop-color="#D6C8FF"/>
</linearGradient>
<linearGradient id="paint5_linear_1152_5594" x1="373.797" y1="134.314" x2="324.734" y2="130.578" gradientUnits="userSpaceOnUse">
<stop stop-color="#4285F4"/>
<stop offset="1" stop-color="#D6C8FF"/>
</linearGradient>
<linearGradient id="paint6_linear_1152_5594" x1="67.9901" y1="183.893" x2="190.312" y2="171.712" gradientUnits="userSpaceOnUse">
<stop stop-color="#4285F4"/>
<stop offset="1" stop-color="#D6C8FF"/>
</linearGradient>
<linearGradient id="paint7_linear_1152_5594" x1="77.3903" y1="134.314" x2="126.453" y2="130.578" gradientUnits="userSpaceOnUse">
<stop stop-color="#4285F4"/>
<stop offset="1" stop-color="#D6C8FF"/>
</linearGradient>
<linearGradient id="paint8_linear_1152_5594" x1="149.43" y1="91.1866" x2="232.333" y2="181.95" gradientUnits="userSpaceOnUse">
<stop stop-color="#4285F4"/>
<stop offset="1" stop-color="#D6C8FF"/>
</linearGradient>
<linearGradient id="paint9_linear_1152_5594" x1="194.789" y1="69.0799" x2="227.12" y2="106.172" gradientUnits="userSpaceOnUse">
<stop stop-color="#4285F4"/>
<stop offset="1" stop-color="#D6C8FF"/>
</linearGradient>
</defs>
</svg>
