<svg width="440" height="416" viewBox="0 0 440 416" fill="none" xmlns="http://www.w3.org/2000/svg">
<circle cx="295.097" cy="272.039" r="143.448" stroke="url(#paint0_linear_936_2593)" stroke-width="1.02463"/>
<path d="M287.408 272.039C287.408 351.264 223.185 415.488 143.96 415.488C64.7362 415.488 0.512315 351.264 0.512315 272.039C0.512315 192.815 64.7362 128.591 143.96 128.591C223.185 128.591 287.408 192.815 287.408 272.039Z" stroke="url(#paint1_linear_936_2593)" stroke-width="1.02463"/>
<circle cx="217.218" cy="143.96" r="143.448" stroke="url(#paint2_linear_936_2593)" stroke-width="1.02463"/>
<path d="M60.5869 282.281H57.8052V275.967H53.6827V282.281H50.891V267.712H53.6827V273.685H57.8052V267.712H60.5869V282.281ZM70.443 282.281L70.2829 280.76C69.916 281.3 69.4724 281.724 68.9521 282.031C68.4384 282.337 67.8747 282.491 67.261 282.491C66.7007 282.491 66.187 282.404 65.7201 282.231C65.2531 282.057 64.8529 281.78 64.5193 281.4C64.1858 281.027 63.9256 280.55 63.7389 279.969C63.5587 279.382 63.4687 278.679 63.4687 277.858V271.454H66.2504V277.878C66.2504 278.318 66.2804 278.689 66.3405 278.989C66.4072 279.289 66.5106 279.529 66.6506 279.709C66.7907 279.896 66.9742 280.029 67.201 280.109C67.4278 280.189 67.7046 280.23 68.0315 280.23C68.325 280.23 68.5885 280.199 68.822 280.139C69.0621 280.079 69.2723 279.993 69.4524 279.879C69.6058 279.779 69.7425 279.659 69.8626 279.519C69.9827 279.379 70.0861 279.222 70.1728 279.049V271.454H72.9645V282.281H70.443ZM77.4173 271.454L77.4973 272.765C77.7041 272.298 77.9876 271.931 78.3478 271.664C78.7147 271.391 79.1583 271.254 79.6786 271.254C79.9321 271.254 80.1589 271.284 80.3591 271.344C80.5592 271.404 80.7326 271.497 80.8794 271.624C80.9928 271.718 81.0895 271.831 81.1696 271.964C81.2563 272.091 81.3297 272.238 81.3897 272.405C81.4831 272.245 81.5865 272.101 81.6999 271.974C81.82 271.841 81.95 271.728 82.0901 271.634C82.2636 271.514 82.4604 271.421 82.6805 271.354C82.9006 271.287 83.1408 271.254 83.4009 271.254C83.7278 271.254 84.0313 271.314 84.3115 271.434C84.5983 271.554 84.8485 271.744 85.0619 272.004C85.2687 272.271 85.4288 272.615 85.5422 273.035C85.6623 273.449 85.7224 273.956 85.7224 274.556V282.281H83.1908V274.546C83.1908 274.339 83.1675 274.169 83.1208 274.036C83.0807 273.902 83.024 273.796 82.9507 273.716C82.8773 273.642 82.7906 273.592 82.6905 273.565C82.5971 273.532 82.5004 273.515 82.4003 273.515C82.2936 273.515 82.1969 273.529 82.1101 273.555C82.0301 273.582 81.9534 273.619 81.88 273.665C81.82 273.712 81.7666 273.766 81.7199 273.826C81.6732 273.879 81.6332 273.942 81.5998 274.016C81.5998 274.029 81.5998 274.059 81.5998 274.106C81.5998 274.152 81.5998 274.216 81.5998 274.296V282.281H79.1483V274.536C79.1483 274.329 79.1283 274.159 79.0883 274.026C79.0483 273.892 78.9949 273.789 78.9282 273.716C78.8548 273.642 78.7714 273.592 78.678 273.565C78.5846 273.532 78.4846 273.515 78.3778 273.515C78.2578 273.515 78.151 273.535 78.0576 273.575C77.9643 273.615 77.8809 273.672 77.8075 273.746C77.7541 273.799 77.7074 273.862 77.6674 273.936C77.6274 274.009 77.5907 274.089 77.5573 274.176V282.281H75.0258V271.454H77.4173ZM94.7579 282.281C94.6912 282.147 94.6345 281.994 94.5878 281.82C94.5411 281.647 94.5011 281.464 94.4677 281.27C94.3143 281.437 94.1375 281.594 93.9374 281.74C93.7373 281.887 93.5171 282.014 93.277 282.121C93.0302 282.234 92.76 282.321 92.4665 282.381C92.173 282.448 91.8561 282.481 91.5159 282.481C90.9622 282.481 90.4519 282.401 89.985 282.241C89.5247 282.081 89.1278 281.857 88.7942 281.57C88.4607 281.283 88.2005 280.943 88.0138 280.55C87.827 280.149 87.7336 279.716 87.7336 279.249C87.7336 278.649 87.8503 278.118 88.0838 277.658C88.3173 277.191 88.6675 276.807 89.1345 276.507C89.5547 276.234 90.0717 276.027 90.6854 275.887C91.3058 275.74 92.0162 275.667 92.8167 275.667H94.3677V275.026C94.3677 274.773 94.3276 274.546 94.2476 274.346C94.1675 274.139 94.0475 273.962 93.8874 273.816C93.7206 273.662 93.5105 273.545 93.257 273.465C93.0102 273.379 92.72 273.335 92.3864 273.335C92.0929 273.335 91.8394 273.372 91.626 273.445C91.4125 273.512 91.2391 273.609 91.1057 273.736C90.9856 273.849 90.8955 273.986 90.8355 274.146C90.7821 274.306 90.7554 274.483 90.7554 274.676H87.9737C87.9737 274.216 88.0738 273.779 88.2739 273.365C88.4807 272.952 88.7809 272.588 89.1745 272.275C89.5614 271.961 90.035 271.714 90.5953 271.534C91.1624 271.347 91.8094 271.254 92.5365 271.254C93.1903 271.254 93.7973 271.334 94.3577 271.494C94.9247 271.654 95.415 271.891 95.8286 272.205C96.2422 272.518 96.5657 272.915 96.7992 273.395C97.0326 273.869 97.1494 274.419 97.1494 275.046V279.689C97.1494 280.27 97.1861 280.75 97.2594 281.13C97.3328 281.51 97.4396 281.837 97.5796 282.111V282.281H94.7579ZM92.1063 280.33C92.3864 280.33 92.6466 280.296 92.8868 280.23C93.1269 280.163 93.3437 280.076 93.5372 279.969C93.7306 279.863 93.8974 279.743 94.0375 279.609C94.1775 279.469 94.2876 279.329 94.3677 279.189V277.328H92.9468C92.5132 277.328 92.143 277.371 91.8361 277.458C91.5293 277.538 91.2791 277.651 91.0857 277.798C90.8922 277.951 90.7488 278.135 90.6554 278.348C90.562 278.555 90.5153 278.782 90.5153 279.029C90.5153 279.222 90.5487 279.402 90.6154 279.569C90.6887 279.729 90.7921 279.866 90.9256 279.979C91.059 280.086 91.2224 280.173 91.4159 280.24C91.616 280.3 91.8461 280.33 92.1063 280.33ZM100.301 282.281V271.454H102.823L102.993 272.955C103.133 272.755 103.286 272.571 103.453 272.405C103.62 272.238 103.797 272.088 103.984 271.954C104.304 271.728 104.654 271.554 105.034 271.434C105.414 271.314 105.818 271.254 106.245 271.254C106.792 271.254 107.292 271.334 107.746 271.494C108.199 271.654 108.593 271.908 108.927 272.255C109.253 272.608 109.507 273.062 109.687 273.615C109.874 274.162 109.967 274.83 109.967 275.617V282.281H107.186V275.657C107.186 275.23 107.136 274.88 107.035 274.606C106.942 274.326 106.805 274.106 106.625 273.946C106.445 273.786 106.228 273.675 105.975 273.615C105.721 273.549 105.434 273.515 105.114 273.515C104.847 273.515 104.601 273.545 104.374 273.605C104.154 273.665 103.957 273.756 103.783 273.876C103.643 273.962 103.517 274.066 103.403 274.186C103.29 274.306 103.186 274.439 103.093 274.586V282.281H100.301ZM122.355 276.978H114.02V274.726H122.355V276.978ZM48.7797 304.718C48.733 305.452 48.5729 306.112 48.2994 306.699C48.0325 307.286 47.6723 307.787 47.2187 308.2C46.7651 308.614 46.2248 308.934 45.5977 309.161C44.9707 309.381 44.2769 309.491 43.5164 309.491C42.9161 309.491 42.3591 309.414 41.8454 309.261C41.3384 309.101 40.8815 308.874 40.4746 308.58C40.101 308.307 39.7675 307.977 39.474 307.59C39.1871 307.203 38.9436 306.776 38.7435 306.309C38.5501 305.842 38.4 305.328 38.2932 304.768C38.1932 304.208 38.1431 303.614 38.1431 302.987V301.026C38.1431 300.439 38.1898 299.882 38.2832 299.355C38.3766 298.821 38.5167 298.327 38.7035 297.874C38.9169 297.32 39.1971 296.826 39.544 296.393C39.8909 295.959 40.2845 295.592 40.7247 295.292C41.1183 295.039 41.5486 294.845 42.0155 294.712C42.4891 294.572 42.9961 294.502 43.5365 294.502C44.3369 294.502 45.0474 294.615 45.6678 294.842C46.2948 295.069 46.8285 295.392 47.2687 295.812C47.709 296.233 48.0559 296.746 48.3094 297.353C48.5629 297.96 48.723 298.644 48.7897 299.405H45.988C45.9613 298.971 45.8946 298.591 45.7878 298.264C45.6878 297.937 45.541 297.664 45.3476 297.443C45.1474 297.23 44.8973 297.07 44.5971 296.963C44.3036 296.85 43.95 296.793 43.5365 296.793C43.3163 296.793 43.1095 296.816 42.9161 296.863C42.7293 296.91 42.5558 296.98 42.3958 297.073C42.1222 297.233 41.8888 297.464 41.6953 297.764C41.5085 298.057 41.3584 298.401 41.245 298.794C41.1583 299.101 41.095 299.441 41.0549 299.815C41.0149 300.182 40.9949 300.579 40.9949 301.006V302.987C40.9949 303.567 41.0249 304.088 41.0849 304.548C41.1517 305.001 41.2517 305.398 41.3851 305.739C41.4785 305.972 41.5886 306.179 41.7153 306.359C41.8487 306.539 41.9988 306.689 42.1656 306.809C42.3457 306.943 42.5458 307.043 42.766 307.109C42.9928 307.169 43.2429 307.199 43.5164 307.199C43.8833 307.199 44.2135 307.153 44.507 307.059C44.8006 306.966 45.0507 306.819 45.2575 306.619C45.4643 306.419 45.6277 306.162 45.7478 305.849C45.8679 305.535 45.9413 305.158 45.9679 304.718H48.7797ZM56.3243 309.481C55.4905 309.481 54.7333 309.344 54.0529 309.071C53.3725 308.797 52.7888 308.424 52.3018 307.95C51.8149 307.483 51.438 306.933 51.1711 306.299C50.911 305.659 50.7809 304.975 50.7809 304.248V303.847C50.7809 303.02 50.911 302.266 51.1711 301.586C51.4313 300.899 51.7949 300.309 52.2618 299.815C52.7288 299.321 53.2824 298.938 53.9228 298.664C54.5632 298.391 55.2603 298.254 56.0141 298.254C56.7946 298.254 57.4884 298.384 58.0954 298.644C58.7091 298.898 59.2294 299.258 59.6564 299.725C60.0766 300.192 60.3968 300.756 60.6169 301.416C60.8371 302.07 60.9471 302.793 60.9471 303.587V304.768H53.6026V304.798C53.696 305.232 53.8161 305.582 53.9629 305.849C54.1096 306.109 54.3064 306.346 54.5532 306.559C54.8067 306.779 55.0969 306.949 55.4238 307.069C55.7506 307.189 56.1075 307.25 56.4944 307.25C57.0414 307.25 57.5717 307.146 58.0854 306.939C58.599 306.733 59.016 306.422 59.3362 306.009L60.727 307.51C60.3735 308.01 59.8131 308.464 59.046 308.871C58.2788 309.277 57.3716 309.481 56.3243 309.481ZM55.9941 300.505C55.6806 300.505 55.3937 300.562 55.1336 300.675C54.8734 300.782 54.6466 300.939 54.4532 301.146C54.253 301.353 54.0863 301.599 53.9528 301.886C53.8194 302.173 53.7194 302.493 53.6527 302.847H58.2155V302.627C58.2155 302.333 58.1621 302.056 58.0554 301.796C57.9486 301.536 57.8019 301.309 57.6151 301.116C57.4283 300.929 57.1982 300.782 56.9247 300.675C56.6578 300.562 56.3477 300.505 55.9941 300.505ZM63.3786 309.281V298.454H65.9002L66.0703 299.955C66.2104 299.755 66.3638 299.571 66.5306 299.405C66.6973 299.238 66.8741 299.088 67.0609 298.954C67.3811 298.728 67.7313 298.554 68.1115 298.434C68.4918 298.314 68.8954 298.254 69.3223 298.254C69.8693 298.254 70.3696 298.334 70.8232 298.494C71.2768 298.654 71.6704 298.908 72.0039 299.255C72.3308 299.608 72.5843 300.062 72.7644 300.615C72.9512 301.162 73.0446 301.83 73.0446 302.617V309.281H70.2629V302.657C70.2629 302.23 70.2128 301.88 70.1128 301.606C70.0194 301.326 69.8826 301.106 69.7025 300.946C69.5224 300.786 69.3056 300.675 69.0521 300.615C68.7986 300.549 68.5118 300.515 68.1916 300.515C67.9248 300.515 67.6779 300.545 67.4511 300.605C67.231 300.665 67.0342 300.756 66.8608 300.876C66.7207 300.962 66.5939 301.066 66.4805 301.186C66.3671 301.306 66.2637 301.439 66.1704 301.586V309.281H63.3786ZM80.7893 295.802V298.454H84.8318V300.505H80.7893V305.158C80.7893 305.552 80.8327 305.882 80.9194 306.149C81.0128 306.409 81.1429 306.616 81.3096 306.769C81.4764 306.929 81.6765 307.043 81.91 307.109C82.1502 307.176 82.417 307.209 82.7105 307.209C82.924 307.209 83.1408 307.199 83.3609 307.179C83.5877 307.159 83.8045 307.133 84.0113 307.099C84.2114 307.073 84.3982 307.043 84.5717 307.009C84.7518 306.976 84.9052 306.943 85.0319 306.909L85.3021 308.82C85.1086 308.934 84.8818 309.034 84.6217 309.121C84.3615 309.201 84.0847 309.267 83.7912 309.321C83.4977 309.374 83.1908 309.414 82.8706 309.441C82.5571 309.474 82.2469 309.491 81.94 309.491C81.3463 309.491 80.806 309.414 80.319 309.261C79.8387 309.101 79.4285 308.854 79.0883 308.52C78.7414 308.193 78.4746 307.777 78.2878 307.27C78.101 306.756 78.0076 306.142 78.0076 305.428V300.505H75.5361V298.454H78.0076V295.802H80.7893ZM93.247 309.481C92.4131 309.481 91.656 309.344 90.9756 309.071C90.2952 308.797 89.7115 308.424 89.2245 307.95C88.7375 307.483 88.3606 306.933 88.0938 306.299C87.8337 305.659 87.7036 304.975 87.7036 304.248V303.847C87.7036 303.02 87.8337 302.266 88.0938 301.586C88.354 300.899 88.7175 300.309 89.1845 299.815C89.6514 299.321 90.2051 298.938 90.8455 298.664C91.4859 298.391 92.183 298.254 92.9368 298.254C93.7173 298.254 94.411 298.384 95.0181 298.644C95.6318 298.898 96.1521 299.258 96.579 299.725C96.9993 300.192 97.3195 300.756 97.5396 301.416C97.7597 302.07 97.8698 302.793 97.8698 303.587V304.768H90.5253V304.798C90.6187 305.232 90.7388 305.582 90.8855 305.849C91.0323 306.109 91.2291 306.346 91.4759 306.559C91.7294 306.779 92.0196 306.949 92.3464 307.069C92.6733 307.189 93.0302 307.25 93.4171 307.25C93.9641 307.25 94.4944 307.146 95.0081 306.939C95.5217 306.733 95.9386 306.422 96.2588 306.009L97.6497 307.51C97.2961 308.01 96.7358 308.464 95.9686 308.871C95.2015 309.277 94.2943 309.481 93.247 309.481ZM92.9168 300.505C92.6032 300.505 92.3164 300.562 92.0562 300.675C91.7961 300.782 91.5693 300.939 91.3758 301.146C91.1757 301.353 91.0089 301.599 90.8755 301.886C90.7421 302.173 90.642 302.493 90.5753 302.847H95.1381V302.627C95.1381 302.333 95.0848 302.056 94.978 301.796C94.8713 301.536 94.7246 301.309 94.5378 301.116C94.351 300.929 94.1208 300.782 93.8473 300.675C93.5805 300.562 93.2703 300.505 92.9168 300.505ZM108.076 298.254C108.496 298.254 108.883 298.284 109.237 298.344C109.597 298.397 109.887 298.457 110.107 298.524L109.697 301.296C109.33 301.209 108.953 301.146 108.566 301.106C108.186 301.059 107.823 301.036 107.476 301.036C107.115 301.036 106.789 301.069 106.495 301.136C106.208 301.196 105.951 301.289 105.725 301.416C105.451 301.563 105.218 301.749 105.024 301.976C104.831 302.203 104.671 302.47 104.544 302.777V309.281H101.762V298.454H104.354L104.464 299.985L104.484 300.225C104.924 299.611 105.451 299.131 106.065 298.784C106.679 298.431 107.349 298.254 108.076 298.254ZM117.862 309.481C117.028 309.481 116.271 309.344 115.591 309.071C114.91 308.797 114.327 308.424 113.84 307.95C113.353 307.483 112.976 306.933 112.709 306.299C112.449 305.659 112.319 304.975 112.319 304.248V303.847C112.319 303.02 112.449 302.266 112.709 301.586C112.969 300.899 113.333 300.309 113.8 299.815C114.267 299.321 114.82 298.938 115.461 298.664C116.101 298.391 116.798 298.254 117.552 298.254C118.332 298.254 119.026 298.384 119.633 298.644C120.247 298.898 120.767 299.258 121.194 299.725C121.614 300.192 121.935 300.756 122.155 301.416C122.375 302.07 122.485 302.793 122.485 303.587V304.768H115.14V304.798C115.234 305.232 115.354 305.582 115.501 305.849C115.647 306.109 115.844 306.346 116.091 306.559C116.344 306.779 116.635 306.949 116.962 307.069C117.288 307.189 117.645 307.25 118.032 307.25C118.579 307.25 119.11 307.146 119.623 306.939C120.137 306.733 120.554 306.422 120.874 306.009L122.265 307.51C121.911 308.01 121.351 308.464 120.584 308.871C119.817 309.277 118.909 309.481 117.862 309.481ZM117.532 300.505C117.218 300.505 116.932 300.562 116.671 300.675C116.411 300.782 116.184 300.939 115.991 301.146C115.791 301.353 115.624 301.599 115.491 301.886C115.357 302.173 115.257 302.493 115.19 302.847H119.753V302.627C119.753 302.333 119.7 302.056 119.593 301.796C119.486 301.536 119.34 301.309 119.153 301.116C118.966 300.929 118.736 300.782 118.462 300.675C118.196 300.562 117.885 300.505 117.532 300.505ZM124.626 303.787C124.626 302.967 124.72 302.216 124.906 301.536C125.1 300.856 125.38 300.272 125.747 299.785C126.114 299.298 126.557 298.921 127.078 298.654C127.605 298.387 128.205 298.254 128.879 298.254C129.446 298.254 129.943 298.357 130.37 298.564C130.803 298.764 131.187 299.051 131.52 299.425V293.911H134.312V309.281H131.801L131.661 308.15C131.32 308.57 130.92 308.897 130.46 309.131C130 309.364 129.466 309.481 128.859 309.481C128.198 309.481 127.605 309.344 127.078 309.071C126.557 308.79 126.117 308.407 125.757 307.92C125.39 307.433 125.11 306.856 124.916 306.189C124.723 305.515 124.626 304.785 124.626 303.998V303.787ZM127.408 303.998C127.408 304.451 127.445 304.875 127.518 305.268C127.598 305.655 127.725 305.992 127.898 306.279C128.072 306.572 128.295 306.803 128.569 306.969C128.842 307.136 129.176 307.219 129.569 307.219C130.05 307.219 130.446 307.116 130.76 306.909C131.08 306.703 131.334 306.419 131.52 306.059V301.676C131.334 301.309 131.084 301.026 130.77 300.826C130.456 300.619 130.063 300.515 129.589 300.515C129.196 300.515 128.859 300.602 128.579 300.776C128.305 300.942 128.082 301.172 127.908 301.466C127.735 301.766 127.608 302.116 127.528 302.517C127.448 302.91 127.408 303.334 127.408 303.787V303.998ZM50.911 336.281V321.712H54.6833C55.357 321.712 55.9874 321.795 56.5745 321.962C57.1615 322.122 57.6951 322.352 58.1754 322.652C58.5957 322.899 58.9693 323.203 59.2961 323.563C59.6297 323.917 59.9198 324.303 60.1667 324.724C60.4535 325.237 60.6736 325.804 60.8271 326.425C60.9872 327.045 61.0672 327.705 61.0672 328.406V329.607C61.0672 330.28 60.9938 330.917 60.8471 331.518C60.7003 332.118 60.4935 332.669 60.2267 333.169C59.9732 333.616 59.6764 334.029 59.3362 334.41C58.9959 334.783 58.6224 335.097 58.2155 335.35C57.7418 335.65 57.2182 335.881 56.6445 336.041C56.0775 336.201 55.4704 336.281 54.8234 336.281H50.911ZM53.7427 323.993V334.019H54.8234C55.1703 334.019 55.4938 333.976 55.794 333.889C56.0942 333.803 56.3677 333.676 56.6145 333.509C56.868 333.336 57.0948 333.115 57.2949 332.849C57.5017 332.575 57.6785 332.258 57.8252 331.898C57.9453 331.585 58.0354 331.238 58.0954 330.857C58.1621 330.471 58.1955 330.054 58.1955 329.607V328.386C58.1955 327.966 58.1621 327.569 58.0954 327.195C58.0354 326.815 57.9453 326.468 57.8252 326.155C57.6785 325.781 57.485 325.447 57.2449 325.154C57.0114 324.86 56.7379 324.62 56.4244 324.433C56.1842 324.293 55.9174 324.187 55.6239 324.113C55.337 324.033 55.0235 323.993 54.6833 323.993H53.7427ZM68.6319 336.481C67.798 336.481 67.0409 336.344 66.3605 336.071C65.68 335.797 65.0964 335.424 64.6094 334.95C64.1224 334.483 63.7455 333.933 63.4787 333.299C63.2185 332.659 63.0885 331.975 63.0885 331.248V330.847C63.0885 330.02 63.2185 329.266 63.4787 328.586C63.7389 327.899 64.1024 327.309 64.5694 326.815C65.0363 326.321 65.59 325.938 66.2304 325.664C66.8708 325.391 67.5679 325.254 68.3217 325.254C69.1021 325.254 69.7959 325.384 70.4029 325.644C71.0167 325.898 71.537 326.258 71.9639 326.725C72.3842 327.192 72.7044 327.756 72.9245 328.416C73.1446 329.07 73.2547 329.793 73.2547 330.587V331.768H65.9102V331.798C66.0036 332.232 66.1237 332.582 66.2704 332.849C66.4172 333.109 66.614 333.346 66.8608 333.559C67.1143 333.779 67.4044 333.949 67.7313 334.069C68.0582 334.189 68.4151 334.25 68.802 334.25C69.349 334.25 69.8793 334.146 70.3929 333.939C70.9066 333.733 71.3235 333.422 71.6437 333.009L73.0346 334.51C72.681 335.01 72.1207 335.464 71.3535 335.871C70.5864 336.277 69.6792 336.481 68.6319 336.481ZM68.3017 327.505C67.9881 327.505 67.7013 327.562 67.4411 327.675C67.181 327.782 66.9542 327.939 66.7607 328.146C66.5606 328.353 66.3938 328.599 66.2604 328.886C66.127 329.173 66.0269 329.493 65.9602 329.847H70.523V329.627C70.523 329.333 70.4697 329.056 70.3629 328.796C70.2562 328.536 70.1094 328.309 69.9227 328.116C69.7359 327.929 69.5057 327.782 69.2322 327.675C68.9654 327.562 68.6552 327.505 68.3017 327.505ZM82.6705 333.309C82.6705 333.142 82.6305 332.995 82.5504 332.869C82.477 332.742 82.3436 332.622 82.1502 332.508C81.95 332.402 81.6865 332.302 81.3597 332.208C81.0328 332.115 80.6192 332.021 80.1189 331.928C79.4852 331.801 78.9048 331.645 78.3778 331.458C77.8575 331.264 77.4106 331.031 77.037 330.757C76.6635 330.491 76.3699 330.18 76.1565 329.827C75.9497 329.473 75.8463 329.066 75.8463 328.606C75.8463 328.159 75.953 327.732 76.1665 327.325C76.38 326.918 76.6868 326.561 77.0871 326.255C77.4873 325.948 77.9743 325.704 78.5479 325.524C79.1216 325.344 79.7687 325.254 80.4891 325.254C81.2429 325.254 81.92 325.344 82.5204 325.524C83.1208 325.698 83.6311 325.938 84.0513 326.245C84.4649 326.558 84.7818 326.928 85.0019 327.355C85.222 327.782 85.3321 328.246 85.3321 328.746H82.5504C82.5504 328.566 82.5204 328.399 82.4604 328.246C82.4003 328.086 82.3103 327.942 82.1902 327.816C82.0234 327.649 81.7966 327.515 81.5098 327.415C81.2296 327.315 80.8894 327.265 80.4891 327.265C80.1489 327.265 79.8521 327.299 79.5986 327.365C79.3451 327.432 79.1383 327.525 78.9782 327.645C78.8315 327.752 78.7181 327.879 78.638 328.026C78.5646 328.166 78.5279 328.316 78.5279 328.476C78.5279 328.636 78.5613 328.786 78.628 328.926C78.6947 329.06 78.8148 329.18 78.9882 329.286C79.155 329.4 79.3851 329.503 79.6786 329.597C79.9722 329.683 80.3457 329.76 80.7993 329.827C81.4531 329.934 82.0601 330.07 82.6205 330.237C83.1808 330.404 83.6644 330.617 84.0713 330.877C84.4783 331.144 84.7951 331.468 85.0219 331.848C85.2554 332.222 85.3721 332.669 85.3721 333.189C85.3721 333.669 85.2554 334.113 85.0219 334.52C84.7951 334.92 84.4716 335.267 84.0513 335.56C83.6244 335.854 83.1108 336.084 82.5104 336.251C81.91 336.411 81.2396 336.491 80.4991 336.491C79.6853 336.491 78.9649 336.384 78.3378 336.171C77.7174 335.957 77.1971 335.677 76.7769 335.33C76.3566 334.99 76.0364 334.603 75.8163 334.169C75.6028 333.729 75.4961 333.289 75.4961 332.849H78.1477C78.1677 333.142 78.2478 333.396 78.3879 333.609C78.5279 333.816 78.708 333.983 78.9282 334.109C79.1483 334.243 79.3985 334.34 79.6786 334.4C79.9655 334.46 80.259 334.49 80.5592 334.49C80.9194 334.49 81.2329 334.46 81.4998 334.4C81.7733 334.333 81.9967 334.246 82.1702 334.139C82.3369 334.033 82.4604 333.909 82.5404 333.769C82.6271 333.629 82.6705 333.476 82.6705 333.309ZM88.7342 325.454H94.6278V334.019H97.5596V336.281H88.7342V334.019H91.8161V327.726H88.7342V325.454ZM91.616 322.682C91.616 322.469 91.6527 322.272 91.726 322.092C91.8061 321.905 91.9162 321.745 92.0562 321.612C92.1963 321.485 92.3631 321.385 92.5566 321.312C92.7567 321.238 92.9768 321.202 93.217 321.202C93.7106 321.202 94.1008 321.342 94.3877 321.622C94.6812 321.895 94.8279 322.249 94.8279 322.682C94.8279 323.116 94.6812 323.473 94.3877 323.753C94.1008 324.027 93.7106 324.163 93.217 324.163C92.9768 324.163 92.7567 324.127 92.5566 324.053C92.3631 323.98 92.1963 323.876 92.0562 323.743C91.9162 323.616 91.8061 323.463 91.726 323.283C91.6527 323.096 91.616 322.896 91.616 322.682ZM100.021 330.787C100.021 329.967 100.121 329.216 100.321 328.536C100.528 327.856 100.822 327.272 101.202 326.785C101.582 326.298 102.042 325.921 102.583 325.654C103.123 325.387 103.733 325.254 104.414 325.254C104.781 325.254 105.114 325.291 105.414 325.364C105.721 325.431 105.998 325.534 106.245 325.674C106.432 325.774 106.605 325.894 106.765 326.034C106.925 326.168 107.072 326.318 107.206 326.485L107.316 325.454H109.847V335.931C109.847 336.664 109.72 337.318 109.467 337.892C109.22 338.465 108.873 338.949 108.426 339.343C107.973 339.736 107.429 340.033 106.795 340.233C106.168 340.44 105.474 340.543 104.714 340.543C104.387 340.543 104.037 340.51 103.663 340.443C103.29 340.377 102.92 340.273 102.553 340.133C102.186 339.993 101.839 339.813 101.512 339.593C101.185 339.379 100.905 339.123 100.672 338.822L101.922 337.131C102.102 337.338 102.296 337.518 102.503 337.672C102.709 337.832 102.926 337.962 103.153 338.062C103.373 338.162 103.6 338.235 103.833 338.282C104.074 338.335 104.32 338.362 104.574 338.362C104.981 338.362 105.341 338.305 105.655 338.192C105.975 338.079 106.242 337.912 106.455 337.692C106.649 337.492 106.795 337.245 106.895 336.951C107.002 336.658 107.055 336.327 107.055 335.961V335.34C106.922 335.487 106.782 335.62 106.635 335.74C106.488 335.861 106.332 335.967 106.165 336.061C105.918 336.194 105.645 336.297 105.344 336.371C105.051 336.444 104.734 336.481 104.394 336.481C103.72 336.481 103.113 336.344 102.573 336.071C102.039 335.79 101.582 335.407 101.202 334.92C100.822 334.433 100.528 333.856 100.321 333.189C100.121 332.515 100.021 331.785 100.021 330.998V330.787ZM102.813 330.998C102.813 331.451 102.856 331.875 102.943 332.268C103.036 332.655 103.176 332.992 103.363 333.279C103.55 333.572 103.787 333.803 104.074 333.969C104.36 334.136 104.701 334.219 105.094 334.219C105.334 334.219 105.551 334.196 105.745 334.149C105.945 334.103 106.125 334.036 106.285 333.949C106.452 333.856 106.599 333.743 106.725 333.609C106.852 333.476 106.962 333.326 107.055 333.159V328.576C106.955 328.389 106.835 328.226 106.695 328.086C106.555 327.946 106.395 327.832 106.215 327.746C106.062 327.672 105.891 327.615 105.705 327.575C105.525 327.535 105.328 327.515 105.114 327.515C104.721 327.515 104.38 327.602 104.094 327.776C103.807 327.942 103.57 328.172 103.383 328.466C103.19 328.766 103.046 329.116 102.953 329.517C102.86 329.91 102.813 330.334 102.813 330.787V330.998ZM112.609 336.281V325.454H115.13L115.301 326.955C115.441 326.755 115.594 326.571 115.761 326.405C115.928 326.238 116.104 326.088 116.291 325.954C116.611 325.728 116.962 325.554 117.342 325.434C117.722 325.314 118.126 325.254 118.553 325.254C119.1 325.254 119.6 325.334 120.053 325.494C120.507 325.654 120.901 325.908 121.234 326.255C121.561 326.608 121.815 327.062 121.995 327.615C122.181 328.162 122.275 328.83 122.275 329.617V336.281H119.493V329.657C119.493 329.23 119.443 328.88 119.343 328.606C119.25 328.326 119.113 328.106 118.933 327.946C118.753 327.786 118.536 327.675 118.282 327.615C118.029 327.549 117.742 327.515 117.422 327.515C117.155 327.515 116.908 327.545 116.681 327.605C116.461 327.665 116.264 327.756 116.091 327.876C115.951 327.962 115.824 328.066 115.711 328.186C115.597 328.306 115.494 328.439 115.401 328.586V336.281H112.609Z" fill="white" fill-opacity="0.7"/>
<path d="M314.03 287.168H308.046V291.281H315.04V293.552H305.224V278.983H315.01V281.275H308.046V284.947H314.03V287.168ZM317.192 288.049C317.192 287.228 317.285 286.478 317.472 285.797C317.659 285.117 317.936 284.533 318.302 284.046C318.663 283.566 319.106 283.193 319.633 282.926C320.167 282.659 320.777 282.525 321.464 282.525C321.825 282.525 322.155 282.565 322.455 282.646C322.762 282.726 323.042 282.839 323.296 282.986C323.476 283.092 323.646 283.216 323.806 283.356C323.966 283.496 324.116 283.653 324.256 283.826L324.426 282.726H326.878V297.715H324.086V292.632C323.946 292.792 323.793 292.935 323.626 293.062C323.459 293.189 323.286 293.299 323.105 293.392C322.872 293.506 322.615 293.592 322.335 293.652C322.061 293.719 321.765 293.752 321.444 293.752C320.764 293.752 320.16 293.616 319.633 293.342C319.106 293.062 318.663 292.675 318.302 292.181C317.942 291.694 317.665 291.117 317.472 290.45C317.285 289.777 317.192 289.046 317.192 288.259V288.049ZM319.974 288.259C319.974 288.706 320.014 289.126 320.094 289.52C320.174 289.913 320.3 290.257 320.474 290.55C320.647 290.851 320.871 291.087 321.144 291.261C321.424 291.434 321.761 291.521 322.155 291.521C322.395 291.521 322.612 291.498 322.805 291.451C323.005 291.398 323.185 291.328 323.346 291.241C323.506 291.147 323.646 291.034 323.766 290.901C323.886 290.761 323.993 290.604 324.086 290.43V285.828C323.993 285.661 323.886 285.514 323.766 285.387C323.646 285.254 323.506 285.14 323.346 285.047C323.192 284.96 323.015 284.894 322.815 284.847C322.622 284.8 322.408 284.777 322.175 284.777C321.781 284.777 321.444 284.864 321.164 285.037C320.891 285.204 320.667 285.434 320.494 285.727C320.314 286.021 320.18 286.368 320.094 286.768C320.014 287.162 319.974 287.589 319.974 288.049V288.259ZM336.844 293.552L336.684 292.031C336.317 292.572 335.873 292.995 335.353 293.302C334.839 293.609 334.276 293.762 333.662 293.762C333.102 293.762 332.588 293.676 332.121 293.502C331.654 293.329 331.254 293.052 330.92 292.672C330.587 292.298 330.327 291.821 330.14 291.241C329.96 290.654 329.87 289.95 329.87 289.13V282.726H332.651V289.15C332.651 289.59 332.681 289.96 332.741 290.26C332.808 290.56 332.911 290.801 333.052 290.981C333.192 291.167 333.375 291.301 333.602 291.381C333.829 291.461 334.106 291.501 334.432 291.501C334.726 291.501 334.989 291.471 335.223 291.411C335.463 291.351 335.673 291.264 335.853 291.151C336.007 291.051 336.143 290.931 336.264 290.791C336.384 290.65 336.487 290.494 336.574 290.32V282.726H339.365V293.552H336.844ZM342.828 282.726H348.721V291.291H351.653V293.552H342.828V291.291H345.909V284.997H342.828V282.726ZM345.709 279.954C345.709 279.74 345.746 279.544 345.819 279.364C345.899 279.177 346.01 279.017 346.15 278.883C346.29 278.756 346.456 278.656 346.65 278.583C346.85 278.51 347.07 278.473 347.31 278.473C347.804 278.473 348.194 278.613 348.481 278.893C348.775 279.167 348.921 279.52 348.921 279.954C348.921 280.387 348.775 280.744 348.481 281.025C348.194 281.298 347.804 281.435 347.31 281.435C347.07 281.435 346.85 281.398 346.65 281.325C346.456 281.251 346.29 281.148 346.15 281.015C346.01 280.888 345.899 280.734 345.819 280.554C345.746 280.367 345.709 280.167 345.709 279.954ZM359.498 280.074V282.726H363.54V284.777H359.498V289.43C359.498 289.823 359.541 290.153 359.628 290.42C359.721 290.68 359.851 290.887 360.018 291.041C360.185 291.201 360.385 291.314 360.618 291.381C360.859 291.448 361.125 291.481 361.419 291.481C361.632 291.481 361.849 291.471 362.069 291.451C362.296 291.431 362.513 291.404 362.72 291.371C362.92 291.344 363.107 291.314 363.28 291.281C363.46 291.247 363.614 291.214 363.74 291.181L364.011 293.092C363.817 293.205 363.59 293.305 363.33 293.392C363.07 293.472 362.793 293.539 362.5 293.592C362.206 293.646 361.899 293.686 361.579 293.712C361.266 293.746 360.955 293.762 360.649 293.762C360.055 293.762 359.514 293.686 359.028 293.532C358.547 293.372 358.137 293.125 357.797 292.792C357.45 292.465 357.183 292.048 356.996 291.541C356.809 291.027 356.716 290.414 356.716 289.7V284.777H354.245V282.726H356.716V280.074H359.498ZM373.466 293.552C373.4 293.419 373.343 293.265 373.296 293.092C373.25 292.919 373.21 292.735 373.176 292.542C373.023 292.708 372.846 292.865 372.646 293.012C372.446 293.159 372.226 293.285 371.985 293.392C371.739 293.506 371.468 293.592 371.175 293.652C370.881 293.719 370.565 293.752 370.224 293.752C369.671 293.752 369.16 293.672 368.693 293.512C368.233 293.352 367.836 293.129 367.503 292.842C367.169 292.555 366.909 292.215 366.722 291.821C366.535 291.421 366.442 290.987 366.442 290.52C366.442 289.92 366.559 289.39 366.792 288.929C367.026 288.462 367.376 288.079 367.843 287.779C368.263 287.505 368.78 287.298 369.394 287.158C370.014 287.012 370.725 286.938 371.525 286.938H373.076V286.298C373.076 286.044 373.036 285.817 372.956 285.617C372.876 285.411 372.756 285.234 372.596 285.087C372.429 284.934 372.219 284.817 371.965 284.737C371.719 284.65 371.428 284.607 371.095 284.607C370.801 284.607 370.548 284.643 370.334 284.717C370.121 284.784 369.948 284.88 369.814 285.007C369.694 285.12 369.604 285.257 369.544 285.417C369.491 285.577 369.464 285.754 369.464 285.948H366.682C366.682 285.487 366.782 285.05 366.982 284.637C367.189 284.223 367.489 283.86 367.883 283.546C368.27 283.233 368.743 282.986 369.304 282.806C369.871 282.619 370.518 282.525 371.245 282.525C371.899 282.525 372.506 282.606 373.066 282.766C373.633 282.926 374.123 283.163 374.537 283.476C374.951 283.79 375.274 284.186 375.508 284.667C375.741 285.14 375.858 285.691 375.858 286.318V290.961C375.858 291.541 375.895 292.021 375.968 292.402C376.041 292.782 376.148 293.109 376.288 293.382V293.552H373.466ZM370.815 291.601C371.095 291.601 371.355 291.568 371.595 291.501C371.835 291.434 372.052 291.348 372.246 291.241C372.439 291.134 372.606 291.014 372.746 290.881C372.886 290.741 372.996 290.6 373.076 290.46V288.599H371.655C371.222 288.599 370.851 288.643 370.545 288.729C370.238 288.809 369.988 288.923 369.794 289.069C369.601 289.223 369.457 289.406 369.364 289.62C369.27 289.827 369.224 290.053 369.224 290.3C369.224 290.494 369.257 290.674 369.324 290.841C369.397 291.001 369.501 291.137 369.634 291.251C369.767 291.358 369.931 291.444 370.124 291.511C370.324 291.571 370.555 291.601 370.815 291.601ZM388.766 288.249C388.766 288.769 388.729 289.263 388.656 289.73C388.582 290.19 388.476 290.617 388.336 291.011C388.182 291.444 387.979 291.838 387.725 292.191C387.478 292.545 387.185 292.838 386.845 293.072C386.538 293.292 386.191 293.459 385.804 293.572C385.424 293.692 385.003 293.752 384.543 293.752C384.123 293.752 383.739 293.699 383.392 293.592C383.052 293.492 382.745 293.342 382.472 293.142C382.325 293.042 382.188 292.932 382.062 292.812C381.935 292.685 381.815 292.548 381.701 292.402L381.571 293.552H379.07V278.183H381.852V283.706C381.985 283.553 382.128 283.413 382.282 283.286C382.435 283.153 382.599 283.039 382.772 282.946C383.019 282.806 383.286 282.702 383.573 282.636C383.866 282.562 384.183 282.525 384.523 282.525C384.99 282.525 385.417 282.586 385.804 282.706C386.198 282.826 386.548 282.999 386.855 283.226C387.101 283.399 387.325 283.609 387.525 283.856C387.725 284.096 387.902 284.36 388.055 284.647C388.295 285.107 388.472 285.624 388.586 286.198C388.706 286.771 388.766 287.385 388.766 288.039V288.249ZM385.984 288.039C385.984 287.752 385.971 287.475 385.944 287.208C385.917 286.942 385.874 286.691 385.814 286.458C385.741 286.184 385.644 285.941 385.524 285.727C385.41 285.507 385.237 285.307 385.003 285.127C384.85 285.014 384.677 284.93 384.483 284.877C384.29 284.817 384.07 284.787 383.823 284.787C383.489 284.787 383.196 284.834 382.942 284.927C382.689 285.02 382.472 285.157 382.292 285.337C382.205 285.424 382.125 285.524 382.052 285.637C381.978 285.744 381.912 285.861 381.852 285.988V290.3C381.932 290.467 382.022 290.62 382.122 290.761C382.228 290.894 382.352 291.011 382.492 291.111C382.659 291.237 382.852 291.334 383.072 291.401C383.299 291.468 383.556 291.501 383.843 291.501C384.09 291.501 384.313 291.471 384.513 291.411C384.713 291.351 384.887 291.268 385.033 291.161C385.24 291.014 385.407 290.824 385.534 290.59C385.667 290.35 385.767 290.08 385.834 289.78C385.887 289.56 385.924 289.32 385.944 289.059C385.971 288.799 385.984 288.529 385.984 288.249V288.039ZM391.898 278.183H397.951V291.291H401.053V293.552H391.898V291.291H395.14V280.454H391.898V278.183ZM408.878 293.752C408.044 293.752 407.287 293.616 406.607 293.342C405.926 293.069 405.343 292.695 404.856 292.221C404.369 291.754 403.992 291.204 403.725 290.57C403.465 289.93 403.335 289.246 403.335 288.519V288.119C403.335 287.292 403.465 286.538 403.725 285.858C403.985 285.17 404.349 284.58 404.816 284.086C405.283 283.593 405.836 283.209 406.477 282.936C407.117 282.662 407.814 282.525 408.568 282.525C409.348 282.525 410.042 282.656 410.649 282.916C411.263 283.169 411.783 283.529 412.21 283.996C412.63 284.463 412.951 285.027 413.171 285.687C413.391 286.341 413.501 287.065 413.501 287.859V289.039H406.156V289.069C406.25 289.503 406.37 289.853 406.517 290.12C406.663 290.38 406.86 290.617 407.107 290.831C407.361 291.051 407.651 291.221 407.978 291.341C408.304 291.461 408.661 291.521 409.048 291.521C409.595 291.521 410.126 291.418 410.639 291.211C411.153 291.004 411.57 290.694 411.89 290.28L413.281 291.781C412.927 292.281 412.367 292.735 411.6 293.142C410.833 293.549 409.925 293.752 408.878 293.752ZM408.548 284.777C408.234 284.777 407.948 284.834 407.687 284.947C407.427 285.054 407.2 285.21 407.007 285.417C406.807 285.624 406.64 285.871 406.507 286.158C406.373 286.445 406.273 286.765 406.206 287.118H410.769V286.898C410.769 286.605 410.716 286.328 410.609 286.068C410.502 285.807 410.356 285.581 410.169 285.387C409.982 285.2 409.752 285.054 409.478 284.947C409.212 284.834 408.901 284.777 408.548 284.777ZM321.384 314.338C321.384 314.965 321.328 315.563 321.214 316.13C321.101 316.69 320.937 317.21 320.724 317.69C320.497 318.171 320.217 318.611 319.883 319.011C319.55 319.412 319.17 319.745 318.743 320.012C318.356 320.245 317.929 320.426 317.462 320.552C317.002 320.686 316.505 320.752 315.971 320.752C315.404 320.752 314.88 320.679 314.4 320.532C313.92 320.385 313.483 320.179 313.089 319.912C312.702 319.632 312.356 319.295 312.049 318.901C311.742 318.501 311.485 318.051 311.278 317.55C311.091 317.09 310.948 316.59 310.848 316.049C310.755 315.509 310.708 314.939 310.708 314.338V312.217C310.708 311.577 310.761 310.97 310.868 310.396C310.981 309.822 311.145 309.292 311.358 308.805C311.565 308.345 311.815 307.928 312.109 307.554C312.409 307.181 312.752 306.861 313.139 306.594C313.52 306.334 313.946 306.133 314.42 305.993C314.894 305.853 315.407 305.783 315.961 305.783C316.521 305.783 317.045 305.857 317.532 306.003C318.026 306.143 318.469 306.347 318.863 306.614C319.256 306.867 319.6 307.174 319.893 307.534C320.194 307.894 320.45 308.291 320.664 308.725C320.897 309.219 321.074 309.759 321.194 310.346C321.321 310.933 321.384 311.557 321.384 312.217V314.338ZM318.533 312.197C318.533 311.824 318.513 311.47 318.473 311.136C318.439 310.796 318.383 310.483 318.302 310.196C318.202 309.836 318.069 309.515 317.902 309.235C317.735 308.948 317.539 308.715 317.312 308.535C317.132 308.401 316.928 308.298 316.702 308.225C316.481 308.151 316.235 308.115 315.961 308.115C315.701 308.115 315.464 308.148 315.251 308.215C315.044 308.281 314.857 308.378 314.69 308.505C314.463 308.692 314.27 308.925 314.11 309.205C313.956 309.485 313.836 309.812 313.75 310.186C313.683 310.473 313.633 310.786 313.6 311.126C313.573 311.467 313.56 311.824 313.56 312.197V314.338C313.56 314.692 313.573 315.032 313.6 315.359C313.626 315.686 313.673 315.989 313.74 316.27C313.813 316.623 313.92 316.947 314.06 317.24C314.207 317.527 314.377 317.761 314.57 317.941C314.75 318.101 314.954 318.224 315.181 318.311C315.414 318.398 315.678 318.441 315.971 318.441C316.251 318.441 316.508 318.401 316.742 318.321C316.975 318.241 317.182 318.124 317.362 317.971C317.589 317.784 317.779 317.55 317.932 317.27C318.092 316.983 318.219 316.66 318.313 316.3C318.386 316.019 318.439 315.713 318.473 315.379C318.513 315.046 318.533 314.699 318.533 314.338V312.197ZM330.69 320.552L330.53 319.031C330.163 319.572 329.72 319.995 329.199 320.302C328.686 320.609 328.122 320.762 327.508 320.762C326.948 320.762 326.434 320.676 325.967 320.502C325.5 320.329 325.1 320.052 324.766 319.672C324.433 319.298 324.173 318.821 323.986 318.241C323.806 317.654 323.716 316.95 323.716 316.13V309.726H326.498V316.15C326.498 316.59 326.528 316.96 326.588 317.26C326.654 317.56 326.758 317.801 326.898 317.981C327.038 318.167 327.221 318.301 327.448 318.381C327.675 318.461 327.952 318.501 328.279 318.501C328.572 318.501 328.836 318.471 329.069 318.411C329.309 318.351 329.519 318.264 329.699 318.151C329.853 318.051 329.99 317.931 330.11 317.791C330.23 317.65 330.333 317.494 330.42 317.32V309.726H333.212V320.552H330.69ZM341.036 307.074V309.726H345.079V311.777H341.036V316.43C341.036 316.823 341.08 317.153 341.167 317.42C341.26 317.68 341.39 317.887 341.557 318.041C341.724 318.201 341.924 318.314 342.157 318.381C342.397 318.448 342.664 318.481 342.958 318.481C343.171 318.481 343.388 318.471 343.608 318.451C343.835 318.431 344.052 318.404 344.258 318.371C344.459 318.344 344.645 318.314 344.819 318.281C344.999 318.247 345.152 318.214 345.279 318.181L345.549 320.092C345.356 320.205 345.129 320.305 344.869 320.392C344.609 320.472 344.332 320.539 344.038 320.592C343.745 320.646 343.438 320.686 343.118 320.712C342.804 320.746 342.494 320.762 342.187 320.762C341.593 320.762 341.053 320.686 340.566 320.532C340.086 320.372 339.676 320.125 339.335 319.792C338.989 319.465 338.722 319.048 338.535 318.541C338.348 318.027 338.255 317.414 338.255 316.7V311.777H335.783V309.726H338.255V307.074H341.036ZM353.034 318.531C353.307 318.531 353.567 318.491 353.814 318.411C354.061 318.331 354.278 318.217 354.465 318.071C354.651 317.924 354.795 317.747 354.895 317.54C355.002 317.334 355.048 317.103 355.035 316.85H357.657C357.67 317.41 357.553 317.931 357.306 318.411C357.066 318.891 356.736 319.305 356.316 319.652C355.896 319.999 355.405 320.272 354.845 320.472C354.291 320.666 353.704 320.762 353.084 320.762C352.243 320.762 351.506 320.622 350.872 320.342C350.239 320.055 349.712 319.665 349.292 319.171C348.865 318.678 348.541 318.101 348.321 317.44C348.107 316.773 348.001 316.059 348.001 315.299V314.999C348.001 314.238 348.107 313.528 348.321 312.868C348.534 312.2 348.855 311.62 349.282 311.126C349.708 310.633 350.235 310.243 350.862 309.956C351.496 309.669 352.23 309.525 353.064 309.525C353.731 309.525 354.348 309.626 354.915 309.826C355.482 310.026 355.972 310.306 356.386 310.666C356.793 311.033 357.11 311.477 357.336 311.997C357.563 312.511 357.67 313.088 357.657 313.728H355.035C355.048 313.461 355.008 313.208 354.915 312.968C354.822 312.727 354.685 312.521 354.505 312.347C354.325 312.174 354.108 312.037 353.854 311.937C353.601 311.83 353.324 311.777 353.024 311.777C352.584 311.777 352.22 311.867 351.933 312.047C351.646 312.227 351.42 312.467 351.253 312.767C351.079 313.068 350.956 313.411 350.883 313.798C350.816 314.185 350.782 314.585 350.782 314.999V315.299C350.782 315.719 350.816 316.126 350.883 316.52C350.949 316.907 351.069 317.247 351.243 317.54C351.409 317.841 351.636 318.081 351.923 318.261C352.217 318.441 352.587 318.531 353.034 318.531ZM360.168 315.039C360.168 314.252 360.282 313.525 360.508 312.858C360.735 312.184 361.069 311.6 361.509 311.106C361.943 310.613 362.473 310.226 363.1 309.946C363.734 309.666 364.458 309.525 365.271 309.525C366.085 309.525 366.809 309.666 367.443 309.946C368.076 310.226 368.613 310.613 369.054 311.106C369.487 311.6 369.817 312.184 370.044 312.858C370.271 313.525 370.384 314.252 370.384 315.039V315.249C370.384 316.043 370.271 316.777 370.044 317.45C369.817 318.117 369.487 318.698 369.054 319.191C368.62 319.685 368.086 320.072 367.453 320.352C366.819 320.626 366.099 320.762 365.291 320.762C364.478 320.762 363.75 320.626 363.11 320.352C362.476 320.072 361.943 319.685 361.509 319.191C361.069 318.698 360.735 318.117 360.508 317.45C360.282 316.777 360.168 316.043 360.168 315.249V315.039ZM362.95 315.249C362.95 315.703 362.993 316.13 363.08 316.53C363.167 316.923 363.303 317.267 363.49 317.56C363.677 317.861 363.917 318.097 364.211 318.271C364.511 318.444 364.871 318.531 365.291 318.531C365.698 318.531 366.048 318.444 366.342 318.271C366.636 318.097 366.876 317.861 367.062 317.56C367.243 317.267 367.376 316.923 367.463 316.53C367.549 316.13 367.593 315.703 367.593 315.249V315.039C367.593 314.599 367.549 314.182 367.463 313.788C367.376 313.395 367.243 313.048 367.062 312.747C366.876 312.447 366.636 312.21 366.342 312.037C366.048 311.864 365.692 311.777 365.271 311.777C364.858 311.777 364.504 311.864 364.211 312.037C363.917 312.21 363.677 312.447 363.49 312.747C363.303 313.048 363.167 313.395 363.08 313.788C362.993 314.182 362.95 314.599 362.95 315.039V315.249ZM374.587 309.726L374.667 311.036C374.874 310.569 375.157 310.203 375.518 309.936C375.885 309.662 376.328 309.525 376.848 309.525C377.102 309.525 377.329 309.555 377.529 309.616C377.729 309.676 377.902 309.769 378.049 309.896C378.163 309.989 378.259 310.102 378.339 310.236C378.426 310.363 378.499 310.509 378.559 310.676C378.653 310.516 378.756 310.373 378.87 310.246C378.99 310.113 379.12 309.999 379.26 309.906C379.433 309.786 379.63 309.692 379.85 309.626C380.07 309.559 380.311 309.525 380.571 309.525C380.898 309.525 381.201 309.586 381.481 309.706C381.768 309.826 382.018 310.016 382.232 310.276C382.439 310.543 382.599 310.886 382.712 311.307C382.832 311.72 382.892 312.227 382.892 312.828V320.552H380.361V312.817C380.361 312.611 380.337 312.441 380.291 312.307C380.251 312.174 380.194 312.067 380.12 311.987C380.047 311.914 379.96 311.864 379.86 311.837C379.767 311.804 379.67 311.787 379.57 311.787C379.463 311.787 379.367 311.8 379.28 311.827C379.2 311.854 379.123 311.89 379.05 311.937C378.99 311.984 378.936 312.037 378.89 312.097C378.843 312.15 378.803 312.214 378.77 312.287C378.77 312.301 378.77 312.331 378.77 312.377C378.77 312.424 378.77 312.487 378.77 312.567V320.552H376.318V312.807C376.318 312.601 376.298 312.431 376.258 312.297C376.218 312.164 376.165 312.06 376.098 311.987C376.025 311.914 375.941 311.864 375.848 311.837C375.754 311.804 375.654 311.787 375.548 311.787C375.428 311.787 375.321 311.807 375.227 311.847C375.134 311.887 375.051 311.944 374.977 312.017C374.924 312.07 374.877 312.134 374.837 312.207C374.797 312.28 374.76 312.361 374.727 312.447V320.552H372.196V309.726H374.587ZM390.417 320.752C389.583 320.752 388.826 320.616 388.145 320.342C387.465 320.069 386.881 319.695 386.394 319.221C385.907 318.754 385.53 318.204 385.264 317.57C385.003 316.93 384.873 316.246 384.873 315.519V315.119C384.873 314.292 385.003 313.538 385.264 312.858C385.524 312.17 385.887 311.58 386.354 311.086C386.821 310.593 387.375 310.209 388.015 309.936C388.656 309.662 389.353 309.525 390.107 309.525C390.887 309.525 391.581 309.656 392.188 309.916C392.802 310.169 393.322 310.529 393.749 310.996C394.169 311.463 394.489 312.027 394.709 312.687C394.93 313.341 395.04 314.065 395.04 314.859V316.039H387.695V316.069C387.789 316.503 387.909 316.853 388.055 317.12C388.202 317.38 388.399 317.617 388.646 317.831C388.899 318.051 389.189 318.221 389.516 318.341C389.843 318.461 390.2 318.521 390.587 318.521C391.134 318.521 391.664 318.418 392.178 318.211C392.692 318.004 393.108 317.694 393.429 317.28L394.819 318.781C394.466 319.281 393.906 319.735 393.138 320.142C392.371 320.549 391.464 320.752 390.417 320.752ZM390.087 311.777C389.773 311.777 389.486 311.834 389.226 311.947C388.966 312.054 388.739 312.21 388.546 312.417C388.346 312.624 388.179 312.871 388.045 313.158C387.912 313.445 387.812 313.765 387.745 314.118H392.308V313.898C392.308 313.605 392.255 313.328 392.148 313.068C392.041 312.807 391.894 312.581 391.708 312.387C391.521 312.2 391.291 312.054 391.017 311.947C390.75 311.834 390.44 311.777 390.087 311.777ZM404.455 317.58C404.455 317.414 404.415 317.267 404.335 317.14C404.262 317.013 404.129 316.893 403.935 316.78C403.735 316.673 403.471 316.573 403.145 316.48C402.818 316.386 402.404 316.293 401.904 316.2C401.27 316.073 400.69 315.916 400.163 315.729C399.642 315.536 399.196 315.302 398.822 315.029C398.448 314.762 398.155 314.452 397.941 314.098C397.735 313.745 397.631 313.338 397.631 312.878C397.631 312.431 397.738 312.004 397.951 311.597C398.165 311.19 398.472 310.833 398.872 310.526C399.272 310.219 399.759 309.976 400.333 309.796C400.907 309.616 401.554 309.525 402.274 309.525C403.028 309.525 403.705 309.616 404.305 309.796C404.906 309.969 405.416 310.209 405.836 310.516C406.25 310.83 406.567 311.2 406.787 311.627C407.007 312.054 407.117 312.517 407.117 313.018H404.335C404.335 312.838 404.305 312.671 404.245 312.517C404.185 312.357 404.095 312.214 403.975 312.087C403.808 311.92 403.582 311.787 403.295 311.687C403.015 311.587 402.674 311.537 402.274 311.537C401.934 311.537 401.637 311.57 401.384 311.637C401.13 311.703 400.923 311.797 400.763 311.917C400.616 312.024 400.503 312.15 400.423 312.297C400.35 312.437 400.313 312.587 400.313 312.747C400.313 312.908 400.346 313.058 400.413 313.198C400.48 313.331 400.6 313.451 400.773 313.558C400.94 313.671 401.17 313.775 401.464 313.868C401.757 313.955 402.131 314.032 402.584 314.098C403.238 314.205 403.845 314.342 404.405 314.509C404.966 314.675 405.449 314.889 405.856 315.149C406.263 315.416 406.58 315.739 406.807 316.12C407.04 316.493 407.157 316.94 407.157 317.46C407.157 317.941 407.04 318.384 406.807 318.791C406.58 319.191 406.257 319.538 405.836 319.832C405.409 320.125 404.896 320.355 404.295 320.522C403.695 320.682 403.025 320.762 402.284 320.762C401.47 320.762 400.75 320.656 400.123 320.442C399.502 320.229 398.982 319.949 398.562 319.602C398.142 319.261 397.821 318.875 397.601 318.441C397.388 318.001 397.281 317.56 397.281 317.12H399.933C399.953 317.414 400.033 317.667 400.173 317.881C400.313 318.087 400.493 318.254 400.713 318.381C400.933 318.514 401.183 318.611 401.464 318.671C401.75 318.731 402.044 318.761 402.344 318.761C402.704 318.761 403.018 318.731 403.285 318.671C403.558 318.604 403.782 318.518 403.955 318.411C404.122 318.304 404.245 318.181 404.325 318.041C404.412 317.901 404.455 317.747 404.455 317.58Z" fill="white" fill-opacity="0.7"/>
<path d="M181.487 65.3549C181.487 65.0947 181.441 64.8512 181.347 64.6244C181.261 64.3976 181.11 64.1842 180.897 63.984C180.677 63.7906 180.39 63.6138 180.036 63.4537C179.69 63.287 179.256 63.1335 178.736 62.9934C177.928 62.7733 177.218 62.5065 176.604 62.1929C175.997 61.8794 175.5 61.5359 175.113 61.1623C174.727 60.7888 174.433 60.3752 174.233 59.9216C174.039 59.4679 173.943 58.9743 173.943 58.4406C173.943 57.8269 174.073 57.2699 174.333 56.7696C174.593 56.2693 174.953 55.8424 175.414 55.4888C175.874 55.1353 176.418 54.8651 177.045 54.6783C177.672 54.4849 178.352 54.3882 179.086 54.3882C179.846 54.3882 180.54 54.4982 181.167 54.7184C181.801 54.9385 182.345 55.2454 182.798 55.6389C183.252 56.0392 183.605 56.5128 183.859 57.0598C184.112 57.6068 184.239 58.2072 184.239 58.8609H181.497C181.484 58.534 181.424 58.2339 181.317 57.9604C181.217 57.6868 181.067 57.45 180.867 57.2499C180.66 57.0565 180.403 56.9064 180.096 56.7996C179.796 56.6862 179.443 56.6295 179.036 56.6295C178.662 56.6295 178.329 56.6762 178.035 56.7696C177.748 56.8563 177.505 56.9797 177.305 57.1398C177.105 57.3066 176.951 57.5034 176.844 57.7302C176.744 57.9503 176.694 58.1905 176.694 58.4507C176.694 58.7242 176.761 58.971 176.895 59.1911C177.035 59.4112 177.235 59.608 177.495 59.7815C177.755 59.9616 178.069 60.125 178.435 60.2718C178.809 60.4185 179.229 60.5553 179.696 60.682C180.197 60.8221 180.674 60.9922 181.127 61.1923C181.581 61.3925 181.998 61.6226 182.378 61.8828C182.952 62.3097 183.409 62.8067 183.749 63.3737C184.089 63.9407 184.259 64.5944 184.259 65.3349C184.259 65.9753 184.129 66.5456 183.869 67.0459C183.615 67.5396 183.262 67.9565 182.808 68.2967C182.355 68.6436 181.814 68.9071 181.187 69.0872C180.56 69.2606 179.876 69.3473 179.136 69.3473C178.409 69.3473 177.688 69.2406 176.975 69.0271C176.267 68.807 175.65 68.4868 175.123 68.0666C174.623 67.653 174.226 67.166 173.933 66.6057C173.646 66.0453 173.502 65.3882 173.502 64.6344H176.264C176.277 65.0747 176.354 65.4516 176.494 65.7651C176.634 66.0787 176.831 66.3355 177.085 66.5356C177.331 66.7357 177.628 66.8825 177.975 66.9759C178.329 67.0693 178.716 67.116 179.136 67.116C179.509 67.116 179.84 67.0726 180.127 66.9859C180.42 66.8992 180.667 66.7791 180.867 66.6257C181.067 66.4722 181.221 66.2888 181.327 66.0753C181.434 65.8552 181.487 65.6151 181.487 65.3549ZM188.041 73.5299C187.775 73.5299 187.541 73.5132 187.341 73.4799C187.147 73.4465 186.931 73.3965 186.691 73.3298L187.031 71.2085C187.144 71.2085 187.288 71.2118 187.461 71.2185C187.641 71.2318 187.785 71.2385 187.891 71.2385C188.111 71.2385 188.305 71.1685 188.472 71.0284C188.645 70.895 188.792 70.7482 188.912 70.5881C189.032 70.428 189.119 70.3079 189.172 70.2279C189.232 70.1478 189.302 70.0344 189.382 69.8877L190.023 68.6969L185.44 58.3306H188.482L190.963 64.6745L191.263 65.7751L191.674 64.6945L194.145 58.3306H197.217L191.724 70.7782C191.604 71.0517 191.447 71.3486 191.253 71.6688C191.067 71.989 190.83 72.2858 190.543 72.5593C190.256 72.8328 189.906 73.063 189.492 73.2497C189.085 73.4365 188.602 73.5299 188.041 73.5299ZM205.622 66.1854C205.622 66.0186 205.582 65.8719 205.502 65.7451C205.429 65.6184 205.295 65.4983 205.102 65.3849C204.902 65.2782 204.638 65.1781 204.311 65.0847C203.984 64.9913 203.571 64.8979 203.071 64.8046C202.437 64.6778 201.857 64.521 201.33 64.3343C200.809 64.1408 200.362 63.9073 199.989 63.6338C199.615 63.367 199.322 63.0568 199.108 62.7033C198.901 62.3497 198.798 61.9428 198.798 61.4825C198.798 61.0356 198.905 60.6086 199.118 60.2017C199.332 59.7948 199.638 59.4379 200.039 59.1311C200.439 58.8242 200.926 58.5807 201.5 58.4006C202.073 58.2205 202.72 58.1305 203.441 58.1305C204.195 58.1305 204.872 58.2205 205.472 58.4006C206.072 58.5741 206.583 58.8142 207.003 59.1211C207.417 59.4346 207.733 59.8048 207.954 60.2317C208.174 60.6587 208.284 61.1223 208.284 61.6226H205.502C205.502 61.4425 205.472 61.2757 205.412 61.1223C205.352 60.9622 205.262 60.8188 205.142 60.692C204.975 60.5253 204.748 60.3918 204.461 60.2918C204.181 60.1917 203.841 60.1417 203.441 60.1417C203.101 60.1417 202.804 60.175 202.55 60.2418C202.297 60.3085 202.09 60.4019 201.93 60.5219C201.783 60.6287 201.67 60.7554 201.59 60.9022C201.516 61.0422 201.48 61.1923 201.48 61.3524C201.48 61.5125 201.513 61.6626 201.58 61.8027C201.646 61.9361 201.766 62.0562 201.94 62.1629C202.107 62.2763 202.337 62.3797 202.63 62.4731C202.924 62.5598 203.297 62.6366 203.751 62.7033C204.405 62.81 205.012 62.9467 205.572 63.1135C206.132 63.2803 206.616 63.4937 207.023 63.7539C207.43 64.0207 207.747 64.3443 207.974 64.7245C208.207 65.0981 208.324 65.545 208.324 66.0653C208.324 66.5456 208.207 66.9892 207.974 67.3961C207.747 67.7964 207.423 68.1433 207.003 68.4368C206.576 68.7303 206.062 68.9604 205.462 69.1272C204.862 69.2873 204.191 69.3674 203.451 69.3674C202.637 69.3674 201.917 69.2606 201.29 69.0472C200.669 68.8337 200.149 68.5535 199.729 68.2066C199.308 67.8664 198.988 67.4795 198.768 67.0459C198.554 66.6057 198.448 66.1654 198.448 65.7251H201.099C201.119 66.0186 201.199 66.2721 201.34 66.4856C201.48 66.6924 201.66 66.8591 201.88 66.9859C202.1 67.1193 202.35 67.216 202.63 67.2761C202.917 67.3361 203.211 67.3661 203.511 67.3661C203.871 67.3661 204.185 67.3361 204.451 67.2761C204.725 67.2094 204.948 67.1226 205.122 67.0159C205.289 66.9092 205.412 66.7858 205.492 66.6457C205.579 66.5056 205.622 66.3522 205.622 66.1854ZM216.049 55.6789V58.3306H220.091V60.3818H216.049V65.0347C216.049 65.4283 216.092 65.7585 216.179 66.0253C216.272 66.2855 216.402 66.4923 216.569 66.6457C216.736 66.8058 216.936 66.9192 217.169 66.9859C217.409 67.0526 217.676 67.086 217.97 67.086C218.183 67.086 218.4 67.0759 218.62 67.0559C218.847 67.0359 219.064 67.0092 219.271 66.9759C219.471 66.9492 219.657 66.9192 219.831 66.8858C220.011 66.8525 220.164 66.8191 220.291 66.7858L220.561 68.6969C220.368 68.8103 220.141 68.9104 219.881 68.9971C219.621 69.0772 219.344 69.1439 219.05 69.1973C218.757 69.2506 218.45 69.2906 218.13 69.3173C217.816 69.3507 217.506 69.3674 217.199 69.3674C216.606 69.3674 216.065 69.2906 215.578 69.1372C215.098 68.9771 214.688 68.7303 214.348 68.3968C214.001 68.0699 213.734 67.653 213.547 67.146C213.36 66.6323 213.267 66.0186 213.267 65.3049V60.3818H210.795V58.3306H213.267V55.6789H216.049ZM228.506 69.3573C227.672 69.3573 226.915 69.2206 226.235 68.9471C225.554 68.6736 224.971 68.3 224.484 67.8264C223.997 67.3595 223.62 66.8091 223.353 66.1754C223.093 65.535 222.963 64.8512 222.963 64.1241V63.7239C222.963 62.8967 223.093 62.1429 223.353 61.4625C223.613 60.7754 223.977 60.1851 224.444 59.6914C224.911 59.1978 225.464 58.8142 226.105 58.5407C226.745 58.2672 227.442 58.1305 228.196 58.1305C228.977 58.1305 229.67 58.2605 230.277 58.5207C230.891 58.7742 231.411 59.1344 231.838 59.6014C232.259 60.0683 232.579 60.632 232.799 61.2924C233.019 61.9461 233.129 62.6699 233.129 63.4637V64.6445H225.785V64.6745C225.878 65.1081 225.998 65.4583 226.145 65.7251C226.292 65.9853 226.488 66.2221 226.735 66.4356C226.989 66.6557 227.279 66.8258 227.606 66.9459C227.933 67.0659 228.289 67.126 228.676 67.126C229.223 67.126 229.754 67.0226 230.267 66.8158C230.781 66.609 231.198 66.2988 231.518 65.8852L232.909 67.3861C232.555 67.8864 231.995 68.3401 231.228 68.747C230.461 69.1539 229.554 69.3573 228.506 69.3573ZM228.176 60.3818C227.862 60.3818 227.576 60.4385 227.315 60.5519C227.055 60.6587 226.829 60.8154 226.635 61.0222C226.435 61.229 226.268 61.4758 226.135 61.7627C226.001 62.0495 225.901 62.3697 225.835 62.7233H230.397V62.5031C230.397 62.2096 230.344 61.9328 230.237 61.6726C230.131 61.4125 229.984 61.1857 229.797 60.9922C229.61 60.8054 229.38 60.6587 229.107 60.5519C228.84 60.4385 228.53 60.3818 228.176 60.3818ZM237.292 58.3306L237.372 59.6414C237.578 59.1744 237.862 58.8075 238.222 58.5407C238.589 58.2672 239.033 58.1305 239.553 58.1305C239.806 58.1305 240.033 58.1605 240.233 58.2205C240.434 58.2805 240.607 58.3739 240.754 58.5007C240.867 58.5941 240.964 58.7075 241.044 58.8409C241.131 58.9676 241.204 59.1144 241.264 59.2812C241.357 59.1211 241.461 58.9776 241.574 58.8509C241.694 58.7175 241.824 58.6041 241.964 58.5107C242.138 58.3906 242.335 58.2972 242.555 58.2305C242.775 58.1638 243.015 58.1305 243.275 58.1305C243.602 58.1305 243.906 58.1905 244.186 58.3106C244.473 58.4306 244.723 58.6208 244.936 58.8809C245.143 59.1477 245.303 59.4913 245.417 59.9115C245.537 60.3251 245.597 60.8321 245.597 61.4325V69.1572H243.065V61.4225C243.065 61.2157 243.042 61.0456 242.995 60.9122C242.955 60.7787 242.898 60.672 242.825 60.592C242.752 60.5186 242.665 60.4686 242.565 60.4419C242.471 60.4085 242.375 60.3918 242.275 60.3918C242.168 60.3918 242.071 60.4052 241.984 60.4319C241.904 60.4586 241.828 60.4952 241.754 60.5419C241.694 60.5886 241.641 60.642 241.594 60.702C241.548 60.7554 241.508 60.8188 241.474 60.8922C241.474 60.9055 241.474 60.9355 241.474 60.9822C241.474 61.0289 241.474 61.0923 241.474 61.1723V69.1572H239.023V61.4125C239.023 61.2057 239.003 61.0356 238.963 60.9022C238.923 60.7687 238.869 60.6653 238.803 60.592C238.729 60.5186 238.646 60.4686 238.552 60.4419C238.459 60.4085 238.359 60.3918 238.252 60.3918C238.132 60.3918 238.025 60.4119 237.932 60.4519C237.839 60.4919 237.755 60.5486 237.682 60.622C237.628 60.6754 237.582 60.7387 237.542 60.8121C237.502 60.8855 237.465 60.9655 237.432 61.0522V69.1572H234.9V58.3306H237.292ZM254.852 66.1854C254.852 66.0186 254.812 65.8719 254.732 65.7451C254.659 65.6184 254.526 65.4983 254.332 65.3849C254.132 65.2782 253.868 65.1781 253.542 65.0847C253.215 64.9913 252.801 64.8979 252.301 64.8046C251.667 64.6778 251.087 64.521 250.56 64.3343C250.039 64.1408 249.593 63.9073 249.219 63.6338C248.845 63.367 248.552 63.0568 248.338 62.7033C248.132 62.3497 248.028 61.9428 248.028 61.4825C248.028 61.0356 248.135 60.6086 248.348 60.2017C248.562 59.7948 248.869 59.4379 249.269 59.1311C249.669 58.8242 250.156 58.5807 250.73 58.4006C251.304 58.2205 251.951 58.1305 252.671 58.1305C253.425 58.1305 254.102 58.2205 254.702 58.4006C255.303 58.5741 255.813 58.8142 256.233 59.1211C256.647 59.4346 256.964 59.8048 257.184 60.2317C257.404 60.6587 257.514 61.1223 257.514 61.6226H254.732C254.732 61.4425 254.702 61.2757 254.642 61.1223C254.582 60.9622 254.492 60.8188 254.372 60.692C254.205 60.5253 253.979 60.3918 253.692 60.2918C253.412 60.1917 253.071 60.1417 252.671 60.1417C252.331 60.1417 252.034 60.175 251.781 60.2418C251.527 60.3085 251.32 60.4019 251.16 60.5219C251.013 60.6287 250.9 60.7554 250.82 60.9022C250.747 61.0422 250.71 61.1923 250.71 61.3524C250.71 61.5125 250.743 61.6626 250.81 61.8027C250.877 61.9361 250.997 62.0562 251.17 62.1629C251.337 62.2763 251.567 62.3797 251.861 62.4731C252.154 62.5598 252.528 62.6366 252.981 62.7033C253.635 62.81 254.242 62.9467 254.802 63.1135C255.363 63.2803 255.846 63.4937 256.253 63.7539C256.66 64.0207 256.977 64.3443 257.204 64.7245C257.437 65.0981 257.554 65.545 257.554 66.0653C257.554 66.5456 257.437 66.9892 257.204 67.3961C256.977 67.7964 256.654 68.1433 256.233 68.4368C255.806 68.7303 255.293 68.9604 254.692 69.1272C254.092 69.2873 253.422 69.3674 252.681 69.3674C251.867 69.3674 251.147 69.2606 250.52 69.0472C249.899 68.8337 249.379 68.5535 248.959 68.2066C248.539 67.8664 248.218 67.4795 247.998 67.0459C247.785 66.6057 247.678 66.1654 247.678 65.7251H250.33C250.35 66.0186 250.43 66.2721 250.57 66.4856C250.71 66.6924 250.89 66.8591 251.11 66.9859C251.33 67.1193 251.58 67.216 251.861 67.2761C252.147 67.3361 252.441 67.3661 252.741 67.3661C253.101 67.3661 253.415 67.3361 253.682 67.2761C253.955 67.2094 254.179 67.1226 254.352 67.0159C254.519 66.9092 254.642 66.7858 254.722 66.6457C254.809 66.5056 254.852 66.3522 254.852 66.1854ZM178.476 83.8797H173.983V96.1572H171.161V83.8797H166.728V81.5883H178.476V83.8797ZM182.958 86.8215C183.098 86.6147 183.252 86.4246 183.419 86.2511C183.592 86.071 183.772 85.9143 183.959 85.7809C184.246 85.5741 184.563 85.414 184.909 85.3006C185.256 85.1872 185.623 85.1305 186.01 85.1305C186.577 85.1305 187.097 85.2172 187.571 85.3906C188.045 85.5574 188.452 85.8209 188.792 86.1811C189.132 86.5413 189.396 87.0049 189.582 87.572C189.776 88.1323 189.873 88.8094 189.873 89.6032V96.1572H187.091V89.5832C187.091 89.1963 187.041 88.8627 186.941 88.5826C186.847 88.3024 186.711 88.0756 186.53 87.9022C186.35 87.7287 186.134 87.602 185.88 87.5219C185.627 87.4352 185.34 87.3918 185.02 87.3918C184.773 87.3918 184.543 87.4152 184.329 87.4619C184.116 87.5086 183.922 87.5786 183.749 87.672C183.589 87.7521 183.442 87.8488 183.308 87.9622C183.182 88.0756 183.065 88.2023 182.958 88.3424V96.1572H180.177V80.7878H182.958V86.8215ZM193.225 85.3306H199.118V93.8958H202.05V96.1572H193.225V93.8958H196.306V87.602H193.225V85.3306ZM196.106 82.5589C196.106 82.3454 196.143 82.1486 196.216 81.9685C196.296 81.7817 196.407 81.6216 196.547 81.4882C196.687 81.3615 196.853 81.2614 197.047 81.188C197.247 81.1147 197.467 81.078 197.707 81.078C198.201 81.078 198.591 81.2181 198.878 81.4982C199.172 81.7717 199.318 82.1253 199.318 82.5589C199.318 82.9925 199.172 83.3494 198.878 83.6295C198.591 83.903 198.201 84.0398 197.707 84.0398C197.467 84.0398 197.247 84.0031 197.047 83.9297C196.853 83.8563 196.687 83.7529 196.547 83.6195C196.407 83.4928 196.296 83.3394 196.216 83.1592C196.143 82.9725 196.106 82.7723 196.106 82.5589ZM204.792 96.1572V85.3306H207.313L207.483 86.8315C207.623 86.6314 207.777 86.4479 207.944 86.2812C208.11 86.1144 208.287 85.9643 208.474 85.8309C208.794 85.6041 209.144 85.4306 209.525 85.3106C209.905 85.1905 210.308 85.1305 210.735 85.1305C211.282 85.1305 211.783 85.2105 212.236 85.3706C212.69 85.5307 213.083 85.7842 213.417 86.1311C213.744 86.4846 213.997 86.9382 214.177 87.4919C214.364 88.0389 214.458 88.706 214.458 89.4931V96.1572H211.676V89.5332C211.676 89.1062 211.626 88.756 211.526 88.4825C211.432 88.2023 211.296 87.9822 211.116 87.8221C210.935 87.662 210.719 87.5519 210.465 87.4919C210.212 87.4252 209.925 87.3918 209.605 87.3918C209.338 87.3918 209.091 87.4219 208.864 87.4819C208.644 87.5419 208.447 87.632 208.274 87.7521C208.134 87.8388 208.007 87.9422 207.894 88.0623C207.78 88.1823 207.677 88.3157 207.583 88.4625V96.1572H204.792ZM221.172 91.6845L219.911 92.8552V96.1572H217.129V80.7878H219.911V89.5732L220.751 88.6126L223.743 85.3306H227.085L223.003 89.8433L227.656 96.1572H224.244L221.172 91.6845ZM230.147 85.3306H236.041V93.8958H238.973V96.1572H230.147V93.8958H233.229V87.602H230.147V85.3306ZM233.029 82.5589C233.029 82.3454 233.066 82.1486 233.139 81.9685C233.219 81.7817 233.329 81.6216 233.469 81.4882C233.609 81.3615 233.776 81.2614 233.97 81.188C234.17 81.1147 234.39 81.078 234.63 81.078C235.124 81.078 235.514 81.2181 235.801 81.4982C236.094 81.7717 236.241 82.1253 236.241 82.5589C236.241 82.9925 236.094 83.3494 235.801 83.6295C235.514 83.903 235.124 84.0398 234.63 84.0398C234.39 84.0398 234.17 84.0031 233.97 83.9297C233.776 83.8563 233.609 83.7529 233.469 83.6195C233.329 83.4928 233.219 83.3394 233.139 83.1592C233.066 82.9725 233.029 82.7723 233.029 82.5589ZM241.714 96.1572V85.3306H244.236L244.406 86.8315C244.546 86.6314 244.7 86.4479 244.866 86.2812C245.033 86.1144 245.21 85.9643 245.397 85.8309C245.717 85.6041 246.067 85.4306 246.447 85.3106C246.827 85.1905 247.231 85.1305 247.658 85.1305C248.205 85.1305 248.705 85.2105 249.159 85.3706C249.613 85.5307 250.006 85.7842 250.34 86.1311C250.667 86.4846 250.92 86.9382 251.1 87.4919C251.287 88.0389 251.38 88.706 251.38 89.4931V96.1572H248.599V89.5332C248.599 89.1062 248.549 88.756 248.448 88.4825C248.355 88.2023 248.218 87.9822 248.038 87.8221C247.858 87.662 247.641 87.5519 247.388 87.4919C247.134 87.4252 246.847 87.3918 246.527 87.3918C246.26 87.3918 246.014 87.4219 245.787 87.4819C245.567 87.5419 245.37 87.632 245.196 87.7521C245.056 87.8388 244.93 87.9422 244.816 88.0623C244.703 88.1823 244.599 88.3157 244.506 88.4625V96.1572H241.714ZM253.742 90.6639C253.742 89.8433 253.842 89.0929 254.042 88.4125C254.249 87.7321 254.542 87.1484 254.922 86.6614C255.303 86.1744 255.763 85.7975 256.303 85.5307C256.844 85.2639 257.454 85.1305 258.134 85.1305C258.501 85.1305 258.835 85.1671 259.135 85.2405C259.442 85.3072 259.719 85.4106 259.966 85.5507C260.152 85.6508 260.326 85.7708 260.486 85.9109C260.646 86.0443 260.793 86.1944 260.926 86.3612L261.036 85.3306H263.568V95.807C263.568 96.5408 263.441 97.1945 263.188 97.7682C262.941 98.3419 262.594 98.8255 262.147 99.2191C261.693 99.6127 261.15 99.9095 260.516 100.11C259.889 100.316 259.195 100.42 258.435 100.42C258.108 100.42 257.758 100.386 257.384 100.32C257.01 100.253 256.64 100.15 256.273 100.01C255.906 99.8695 255.56 99.6894 255.233 99.4693C254.906 99.2558 254.626 98.999 254.392 98.6988L255.643 97.0077C255.823 97.2145 256.016 97.3947 256.223 97.5481C256.43 97.7082 256.647 97.8383 256.874 97.9383C257.094 98.0384 257.321 98.1118 257.554 98.1585C257.794 98.2118 258.041 98.2385 258.295 98.2385C258.701 98.2385 259.062 98.1818 259.375 98.0684C259.695 97.955 259.962 97.7882 260.176 97.5681C260.369 97.368 260.516 97.1212 260.616 96.8276C260.723 96.5341 260.776 96.2039 260.776 95.837V95.2166C260.643 95.3634 260.503 95.4968 260.356 95.6169C260.209 95.737 260.052 95.8437 259.885 95.9371C259.639 96.0705 259.365 96.1739 259.065 96.2473C258.771 96.3207 258.455 96.3573 258.114 96.3573C257.441 96.3573 256.834 96.2206 256.293 95.9471C255.76 95.6669 255.303 95.2834 254.922 94.7964C254.542 94.3094 254.249 93.7324 254.042 93.0653C253.842 92.3916 253.742 91.6611 253.742 90.874V90.6639ZM256.533 90.874C256.533 91.3276 256.577 91.7512 256.664 92.1448C256.757 92.5317 256.897 92.8685 257.084 93.1554C257.271 93.4489 257.507 93.679 257.794 93.8458C258.081 94.0126 258.421 94.096 258.815 94.096C259.055 94.096 259.272 94.0726 259.465 94.0259C259.665 93.9792 259.845 93.9125 260.006 93.8258C260.172 93.7324 260.319 93.619 260.446 93.4856C260.573 93.3522 260.683 93.2021 260.776 93.0353V88.4525C260.676 88.2657 260.556 88.1023 260.416 87.9622C260.276 87.8221 260.116 87.7087 259.936 87.622C259.782 87.5486 259.612 87.4919 259.425 87.4519C259.245 87.4119 259.048 87.3918 258.835 87.3918C258.441 87.3918 258.101 87.4786 257.814 87.652C257.527 87.8188 257.291 88.0489 257.104 88.3424C256.91 88.6426 256.767 88.9928 256.674 89.3931C256.58 89.7866 256.533 90.2102 256.533 90.6639V90.874Z" fill="white" fill-opacity="0.7"/>
<path d="M188.763 225.069V231.056H198.417V236.62H188.763V243.112H199.682V248.888H181.555V219.294H199.682V225.069H188.763ZM203.139 234.049C203.139 231.126 203.772 228.526 205.036 226.25C206.301 223.945 208.058 222.161 210.306 220.896C212.582 219.603 215.154 218.957 218.02 218.957C221.533 218.957 224.541 219.884 227.042 221.739C229.543 223.594 231.215 226.123 232.058 229.327H224.133C223.543 228.091 222.7 227.149 221.604 226.503C220.536 225.856 219.313 225.533 217.936 225.533C215.716 225.533 213.917 226.306 212.54 227.852C211.163 229.397 210.474 231.463 210.474 234.049C210.474 236.634 211.163 238.7 212.54 240.246C213.917 241.791 215.716 242.564 217.936 242.564C219.313 242.564 220.536 242.241 221.604 241.595C222.7 240.948 223.543 240.007 224.133 238.77H232.058C231.215 241.974 229.543 244.503 227.042 246.358C224.541 248.185 221.533 249.098 218.02 249.098C215.154 249.098 212.582 248.466 210.306 247.201C208.058 245.909 206.301 244.124 205.036 241.848C203.772 239.571 203.139 236.972 203.139 234.049ZM247.56 219.294C250.68 219.294 253.406 219.912 255.738 221.149C258.071 222.386 259.87 224.128 261.134 226.376C262.427 228.597 263.074 231.168 263.074 234.091C263.074 236.986 262.427 239.557 261.134 241.805C259.87 244.054 258.057 245.796 255.696 247.033C253.364 248.269 250.652 248.888 247.56 248.888H236.473V219.294H247.56ZM247.096 242.649C249.822 242.649 251.944 241.904 253.462 240.414C254.98 238.925 255.738 236.817 255.738 234.091C255.738 231.365 254.98 229.243 253.462 227.725C251.944 226.208 249.822 225.449 247.096 225.449H243.682V242.649H247.096Z" fill="white" fill-opacity="0.8"/>
<defs>
<linearGradient id="paint0_linear_936_2593" x1="295.097" y1="128.079" x2="295.097" y2="416" gradientUnits="userSpaceOnUse">
<stop stop-color="#9DB2FB"/>
<stop offset="1" stop-color="#DBCEFF"/>
</linearGradient>
<linearGradient id="paint1_linear_936_2593" x1="143.96" y1="128.079" x2="143.96" y2="416" gradientUnits="userSpaceOnUse">
<stop stop-color="#9DB2FB"/>
<stop offset="1" stop-color="#DBCEFF"/>
</linearGradient>
<linearGradient id="paint2_linear_936_2593" x1="217.218" y1="0" x2="217.218" y2="287.921" gradientUnits="userSpaceOnUse">
<stop stop-color="#9DB2FB"/>
<stop offset="1" stop-color="#DBCEFF"/>
</linearGradient>
</defs>
</svg>
